<?xml version="1.0" encoding="utf-8"?>
<!-- Generator: Adobe Illustrator 27.1.1, SVG Export Plug-In . SVG Version: 6.00 Build 0)  -->
<svg version="1.1" xmlns="http://www.w3.org/2000/svg" xmlns:xlink="http://www.w3.org/1999/xlink" x="0px" y="0px"
	 viewBox="0 0 800 600" style="enable-background:new 0 0 800 600;" xml:space="preserve">
<style type="text/css">
	.st0{display:none;}
	.st1{display:inline;fill:#232323;}
	.st2{fill:#FFFFFF;}
</style>
<g id="Layer_1" class="st0">
	<rect x="100" y="-100" transform="matrix(-1.836970e-16 1 -1 -1.836970e-16 700 -100)" class="st1" width="600" height="800"/>
</g>
<g id="Layer_2">
	<g>
		<g>
			<g>
				<g>
					<path class="st2" d="M752.6,209.5c0,0.1,0,0.2,0,0.3v181.3c0,2,2.9,3.5,4.6,3.5c2.1,0,3.8-1.7,3.8-3.8c0-1.8-1.5-3.3-3.3-3.3
						c-1,0-1.8,0.5-2.3,1.2V211.1c0.5,0.7,1.4,1.2,2.3,1.2c1.8,0,3.3-1.5,3.3-3.3c0-2.1-1.7-3.8-3.8-3.8
						C754.7,205.2,752.7,207.1,752.6,209.5z"/>
					<path class="st2" d="M744.8,391.1V209.8c0-0.1,0-0.2,0-0.3c-0.2-2.4-2.1-4.3-4.6-4.3c-2.1,0-3.8,1.7-3.8,3.8
						c0,1.8,1.5,3.3,3.3,3.3c1,0,1.8-0.5,2.3-1.2v177.7c-0.5-0.7-1.4-1.2-2.3-1.2c-1.8,0-3.3,1.5-3.3,3.3c0,2.1,1.7,3.8,3.8,3.8
						C742,394.7,744.8,393.2,744.8,391.1z"/>
					<path class="st2" d="M749.6,207.8c-0.3-0.3-0.6-0.4-1-0.4c-0.4,0-0.7,0.2-1,0.4c-0.3,0.3-0.4,0.6-0.4,1c0,0.4,0.2,0.7,0.4,1
						c0.3,0.3,0.6,0.4,1,0.4c0.4,0,0.7-0.2,1-0.4C750.1,209.3,750.1,208.3,749.6,207.8z"/>
					<path class="st2" d="M748.6,342.4c-0.8,0-1.4,0.6-1.4,1.4c0,0.8,0.6,1.4,1.4,1.4c0.8,0,1.4-0.6,1.4-1.4
						C750,343.1,749.4,342.4,748.6,342.4z"/>
					<circle class="st2" cx="748.6" cy="350.6" r="1.4"/>
					<circle class="st2" cx="748.6" cy="364.1" r="1.4"/>
					<path class="st2" d="M748.6,382.9c-0.8,0-1.4,0.6-1.4,1.4c0,0.8,0.6,1.4,1.4,1.4c0.8,0,1.4-0.6,1.4-1.4
						C750,383.6,749.4,382.9,748.6,382.9z"/>
					<path class="st2" d="M748.6,369.4c-0.8,0-1.4,0.6-1.4,1.4c0,0.8,0.6,1.4,1.4,1.4c0.8,0,1.4-0.6,1.4-1.4
						C750,370.1,749.4,369.4,748.6,369.4z"/>
					<circle class="st2" cx="748.6" cy="377.6" r="1.4"/>
					<path class="st2" d="M748.6,335.7c-0.8,0-1.4,0.6-1.4,1.4c0,0.8,0.6,1.4,1.4,1.4c0.8,0,1.4-0.6,1.4-1.4
						C750,336.3,749.4,335.7,748.6,335.7z"/>
					<circle class="st2" cx="748.6" cy="303.3" r="1.4"/>
					<path class="st2" d="M748.6,315.4c-0.8,0-1.4,0.6-1.4,1.4c0,0.8,0.6,1.4,1.4,1.4c0.8,0,1.4-0.6,1.4-1.4
						C750,316,749.4,315.4,748.6,315.4z"/>
					<path class="st2" d="M748.6,308.7c-0.8,0-1.4,0.6-1.4,1.4c0,0.8,0.6,1.4,1.4,1.4c0.8,0,1.4-0.6,1.4-1.4
						C750,309.3,749.4,308.7,748.6,308.7z"/>
					<path class="st2" d="M748.6,328.9c-0.8,0-1.4,0.6-1.4,1.4c0,0.8,0.6,1.4,1.4,1.4c0.8,0,1.4-0.6,1.4-1.4
						C750,329.6,749.4,328.9,748.6,328.9z"/>
					<circle class="st2" cx="748.6" cy="323.6" r="1.4"/>
					<path class="st2" d="M748.6,355.9c-0.8,0-1.4,0.6-1.4,1.4c0,0.8,0.6,1.4,1.4,1.4c0.8,0,1.4-0.6,1.4-1.4
						C750,356.6,749.4,355.9,748.6,355.9z"/>
					<circle class="st2" cx="748.6" cy="235.8" r="1.4"/>
					<circle class="st2" cx="748.6" cy="249.3" r="1.4"/>
					<circle class="st2" cx="748.6" cy="229" r="1.4"/>
					<circle class="st2" cx="748.6" cy="296.6" r="1.4"/>
					<circle class="st2" cx="748.6" cy="222.3" r="1.4"/>
					<path class="st2" d="M748.6,214.1c-0.8,0-1.4,0.6-1.4,1.4c0,0.8,0.6,1.4,1.4,1.4c0.8,0,1.4-0.6,1.4-1.4
						C750,214.7,749.4,214.1,748.6,214.1z"/>
					<circle class="st2" cx="748.6" cy="242.5" r="1.4"/>
					<circle class="st2" cx="748.6" cy="256.1" r="1.4"/>
					<circle class="st2" cx="748.6" cy="283.1" r="1.4"/>
					<circle class="st2" cx="748.6" cy="289.8" r="1.4"/>
					<circle class="st2" cx="748.6" cy="276.3" r="1.4"/>
					<circle class="st2" cx="748.6" cy="262.8" r="1.4"/>
					<circle class="st2" cx="748.6" cy="269.6" r="1.4"/>
					<path class="st2" d="M749.6,390.1c-0.3-0.3-0.6-0.4-1-0.4c-0.4,0-0.7,0.2-1,0.4c-0.3,0.3-0.4,0.6-0.4,1c0,0.4,0.2,0.7,0.4,1
						c0.3,0.3,0.6,0.4,1,0.4c0.4,0,0.7-0.2,1-0.4C750.1,391.6,750.1,390.6,749.6,390.1z"/>
				</g>
				<g>
					<path class="st2" d="M55.2,209.5c0,0.1,0,0.2,0,0.3v181.3c0,2,2.9,3.5,4.6,3.5c2.1,0,3.8-1.7,3.8-3.8c0-1.8-1.5-3.3-3.3-3.3
						c-1,0-1.8,0.5-2.3,1.2V211.1c0.5,0.7,1.4,1.2,2.3,1.2c1.8,0,3.3-1.5,3.3-3.3c0-2.1-1.7-3.8-3.8-3.8
						C57.3,205.2,55.3,207.1,55.2,209.5z"/>
					<path class="st2" d="M47.4,391.1V209.8c0-0.1,0-0.2,0-0.3c-0.2-2.4-2.1-4.3-4.6-4.3c-2.1,0-3.8,1.7-3.8,3.8
						c0,1.8,1.5,3.3,3.3,3.3c1,0,1.8-0.5,2.3-1.2v177.7c-0.5-0.7-1.4-1.2-2.3-1.2c-1.8,0-3.3,1.5-3.3,3.3c0,2.1,1.7,3.8,3.8,3.8
						C44.6,394.7,47.4,393.2,47.4,391.1z"/>
					<path class="st2" d="M52.2,207.8c-0.3-0.3-0.6-0.4-1-0.4c-0.4,0-0.7,0.2-1,0.4c-0.3,0.3-0.4,0.6-0.4,1c0,0.4,0.2,0.7,0.4,1
						c0.3,0.3,0.6,0.4,1,0.4c0.4,0,0.7-0.2,1-0.4C52.7,209.3,52.7,208.3,52.2,207.8z"/>
					<path class="st2" d="M51.2,342.4c-0.8,0-1.4,0.6-1.4,1.4c0,0.8,0.6,1.4,1.4,1.4c0.8,0,1.4-0.6,1.4-1.4
						C52.6,343.1,52,342.4,51.2,342.4z"/>
					<circle class="st2" cx="51.2" cy="350.6" r="1.4"/>
					<circle class="st2" cx="51.2" cy="364.1" r="1.4"/>
					<path class="st2" d="M51.2,382.9c-0.8,0-1.4,0.6-1.4,1.4c0,0.8,0.6,1.4,1.4,1.4c0.8,0,1.4-0.6,1.4-1.4
						C52.6,383.6,52,382.9,51.2,382.9z"/>
					<path class="st2" d="M51.2,369.4c-0.8,0-1.4,0.6-1.4,1.4c0,0.8,0.6,1.4,1.4,1.4c0.8,0,1.4-0.6,1.4-1.4
						C52.6,370.1,52,369.4,51.2,369.4z"/>
					<circle class="st2" cx="51.2" cy="377.6" r="1.4"/>
					<path class="st2" d="M51.2,335.7c-0.8,0-1.4,0.6-1.4,1.4c0,0.8,0.6,1.4,1.4,1.4c0.8,0,1.4-0.6,1.4-1.4
						C52.6,336.3,52,335.7,51.2,335.7z"/>
					<circle class="st2" cx="51.2" cy="303.3" r="1.4"/>
					<path class="st2" d="M51.2,315.4c-0.8,0-1.4,0.6-1.4,1.4c0,0.8,0.6,1.4,1.4,1.4c0.8,0,1.4-0.6,1.4-1.4
						C52.6,316,52,315.4,51.2,315.4z"/>
					<path class="st2" d="M51.2,308.7c-0.8,0-1.4,0.6-1.4,1.4c0,0.8,0.6,1.4,1.4,1.4c0.8,0,1.4-0.6,1.4-1.4
						C52.6,309.3,52,308.7,51.2,308.7z"/>
					<path class="st2" d="M51.2,328.9c-0.8,0-1.4,0.6-1.4,1.4c0,0.8,0.6,1.4,1.4,1.4c0.8,0,1.4-0.6,1.4-1.4
						C52.6,329.6,52,328.9,51.2,328.9z"/>
					<circle class="st2" cx="51.2" cy="323.6" r="1.4"/>
					<path class="st2" d="M51.2,355.9c-0.8,0-1.4,0.6-1.4,1.4c0,0.8,0.6,1.4,1.4,1.4c0.8,0,1.4-0.6,1.4-1.4
						C52.6,356.6,52,355.9,51.2,355.9z"/>
					<circle class="st2" cx="51.2" cy="235.8" r="1.4"/>
					<circle class="st2" cx="51.2" cy="249.3" r="1.4"/>
					<circle class="st2" cx="51.2" cy="229" r="1.4"/>
					<circle class="st2" cx="51.2" cy="296.6" r="1.4"/>
					<circle class="st2" cx="51.2" cy="222.3" r="1.4"/>
					<path class="st2" d="M51.2,214.1c-0.8,0-1.4,0.6-1.4,1.4c0,0.8,0.6,1.4,1.4,1.4c0.8,0,1.4-0.6,1.4-1.4
						C52.6,214.7,52,214.1,51.2,214.1z"/>
					<circle class="st2" cx="51.2" cy="242.5" r="1.4"/>
					<circle class="st2" cx="51.2" cy="256.1" r="1.4"/>
					<circle class="st2" cx="51.2" cy="283.1" r="1.4"/>
					<circle class="st2" cx="51.2" cy="289.8" r="1.4"/>
					<circle class="st2" cx="51.2" cy="276.3" r="1.4"/>
					<circle class="st2" cx="51.2" cy="262.8" r="1.4"/>
					<circle class="st2" cx="51.2" cy="269.6" r="1.4"/>
					<path class="st2" d="M52.2,390.1c-0.3-0.3-0.6-0.4-1-0.4c-0.4,0-0.7,0.2-1,0.4c-0.3,0.3-0.4,0.6-0.4,1c0,0.4,0.2,0.7,0.4,1
						c0.3,0.3,0.6,0.4,1,0.4c0.4,0,0.7-0.2,1-0.4C52.7,391.6,52.7,390.6,52.2,390.1z"/>
				</g>
				<g>
					<path class="st2" d="M222.5,568.7c0-1-0.5-1.8-1.2-2.3h357.1c-0.7,0.5-1.2,1.4-1.2,2.3c0,1.8,1.5,3.3,3.3,3.3
						c2.1,0,3.8-1.7,3.8-3.8c0-1.7-1.2-4.6-3.5-4.6H220c-0.1,0-0.2,0-0.3,0c-2.4,0.2-4.3,2.1-4.3,4.6c0,2.1,1.7,3.8,3.8,3.8
						C221,571.9,222.5,570.5,222.5,568.7z"/>
					<path class="st2" d="M584.2,549.3c0-2.1-1.7-3.8-3.8-3.8c-1.8,0-3.3,1.5-3.3,3.3c0,1,0.5,1.8,1.2,2.3H221.2
						c0.7-0.5,1.2-1.4,1.2-2.3c0-1.8-1.5-3.3-3.3-3.3c-2.1,0-3.8,1.7-3.8,3.8c0,2.4,1.9,4.4,4.3,4.6c0.1,0,0.2,0,0.3,0h360.7
						C582.6,553.9,584.2,551.8,584.2,549.3z"/>
					<path class="st2" d="M568.8,558.4c0-0.8-0.6-1.4-1.4-1.4c-0.8,0-1.4,0.6-1.4,1.4c0,0.8,0.6,1.4,1.4,1.4
						C568.1,559.9,568.8,559.2,568.8,558.4z"/>
					<circle class="st2" cx="467.7" cy="558.4" r="1.4"/>
					<circle class="st2" cx="461.1" cy="558.4" r="1.4"/>
					<circle class="st2" cx="454.4" cy="558.4" r="1.4"/>
					<path class="st2" d="M475.8,558.4c0-0.8-0.6-1.4-1.4-1.4c-0.8,0-1.4,0.6-1.4,1.4c0,0.8,0.6,1.4,1.4,1.4
						C475.1,559.9,475.8,559.2,475.8,558.4z"/>
					<path class="st2" d="M482.4,558.4c0-0.8-0.6-1.4-1.4-1.4c-0.8,0-1.4,0.6-1.4,1.4c0,0.8,0.6,1.4,1.4,1.4
						C481.8,559.9,482.4,559.2,482.4,558.4z"/>
					<circle class="st2" cx="447.8" cy="558.4" r="1.4"/>
					<path class="st2" d="M429.3,558.4c0-0.8-0.6-1.4-1.4-1.4c-0.8,0-1.4,0.6-1.4,1.4c0,0.8,0.6,1.4,1.4,1.4
						C428.6,559.9,429.3,559.2,429.3,558.4z"/>
					<path class="st2" d="M422.6,558.4c0-0.8-0.6-1.4-1.4-1.4c-0.8,0-1.4,0.6-1.4,1.4c0,0.8,0.6,1.4,1.4,1.4
						C422,559.9,422.6,559.2,422.6,558.4z"/>
					<path class="st2" d="M416,558.4c0-0.8-0.6-1.4-1.4-1.4c-0.8,0-1.4,0.6-1.4,1.4c0,0.8,0.6,1.4,1.4,1.4
						C415.3,559.9,416,559.2,416,558.4z"/>
					<path class="st2" d="M409.3,558.4c0-0.8-0.6-1.4-1.4-1.4c-0.8,0-1.4,0.6-1.4,1.4c0,0.8,0.6,1.4,1.4,1.4
						C408.7,559.9,409.3,559.2,409.3,558.4z"/>
					<path class="st2" d="M442.5,558.4c0-0.8-0.6-1.4-1.4-1.4c-0.8,0-1.4,0.6-1.4,1.4c0,0.8,0.6,1.4,1.4,1.4
						C441.9,559.9,442.5,559.2,442.5,558.4z"/>
					<path class="st2" d="M489.1,558.4c0-0.8-0.6-1.4-1.4-1.4c-0.8,0-1.4,0.6-1.4,1.4c0,0.8,0.6,1.4,1.4,1.4
						C488.4,559.9,489.1,559.2,489.1,558.4z"/>
					<path class="st2" d="M435.9,558.4c0-0.8-0.6-1.4-1.4-1.4c-0.8,0-1.4,0.6-1.4,1.4c0,0.8,0.6,1.4,1.4,1.4
						C435.3,559.9,435.9,559.2,435.9,558.4z"/>
					<circle class="st2" cx="580.6" cy="558.4" r="1.4"/>
					<path class="st2" d="M223.3,558.4c0-0.8-0.6-1.4-1.4-1.4c-0.8,0-1.4,0.6-1.4,1.4c0,0.8,0.6,1.4,1.4,1.4
						C222.7,559.9,223.3,559.2,223.3,558.4z"/>
					<path class="st2" d="M555.5,558.4c0-0.8-0.6-1.4-1.4-1.4c-0.8,0-1.4,0.6-1.4,1.4c0,0.8,0.6,1.4,1.4,1.4
						C554.9,559.9,555.5,559.2,555.5,558.4z"/>
					<path class="st2" d="M548.9,558.4c0-0.8-0.6-1.4-1.4-1.4c-0.8,0-1.4,0.6-1.4,1.4c0,0.8,0.6,1.4,1.4,1.4
						C548.2,559.9,548.9,559.2,548.9,558.4z"/>
					<path class="st2" d="M562.1,558.4c0-0.8-0.6-1.4-1.4-1.4c-0.8,0-1.4,0.6-1.4,1.4c0,0.8,0.6,1.4,1.4,1.4
						C561.5,559.9,562.1,559.2,562.1,558.4z"/>
					<path class="st2" d="M402.7,558.4c0-0.8-0.6-1.4-1.4-1.4c-0.8,0-1.4,0.6-1.4,1.4c0,0.8,0.6,1.4,1.4,1.4
						C402.1,559.9,402.7,559.2,402.7,558.4z"/>
					<path class="st2" d="M575.4,558.4c0-0.8-0.6-1.4-1.4-1.4c-0.8,0-1.4,0.6-1.4,1.4c0,0.8,0.6,1.4,1.4,1.4
						C574.8,559.9,575.4,559.2,575.4,558.4z"/>
					<path class="st2" d="M502.3,558.4c0-0.8-0.6-1.4-1.4-1.4c-0.8,0-1.4,0.6-1.4,1.4c0,0.8,0.6,1.4,1.4,1.4
						C501.7,559.9,502.3,559.2,502.3,558.4z"/>
					<path class="st2" d="M509,558.4c0-0.8-0.6-1.4-1.4-1.4c-0.8,0-1.4,0.6-1.4,1.4c0,0.8,0.6,1.4,1.4,1.4
						C508.4,559.9,509,559.2,509,558.4z"/>
					<path class="st2" d="M515.6,558.4c0-0.8-0.6-1.4-1.4-1.4c-0.8,0-1.4,0.6-1.4,1.4c0,0.8,0.6,1.4,1.4,1.4
						C515,559.9,515.6,559.2,515.6,558.4z"/>
					<path class="st2" d="M495.7,558.4c0-0.8-0.6-1.4-1.4-1.4c-0.8,0-1.4,0.6-1.4,1.4c0,0.8,0.6,1.4,1.4,1.4
						C495.1,559.9,495.7,559.2,495.7,558.4z"/>
					<path class="st2" d="M522.3,558.4c0-0.8-0.6-1.4-1.4-1.4c-0.8,0-1.4,0.6-1.4,1.4c0,0.8,0.6,1.4,1.4,1.4
						C521.6,559.9,522.3,559.2,522.3,558.4z"/>
					<path class="st2" d="M535.6,558.4c0-0.8-0.6-1.4-1.4-1.4c-0.8,0-1.4,0.6-1.4,1.4c0,0.8,0.6,1.4,1.4,1.4
						C534.9,559.9,535.6,559.2,535.6,558.4z"/>
					<path class="st2" d="M528.9,558.4c0-0.8-0.6-1.4-1.4-1.4c-0.8,0-1.4,0.6-1.4,1.4c0,0.8,0.6,1.4,1.4,1.4
						C528.3,559.9,528.9,559.2,528.9,558.4z"/>
					<path class="st2" d="M542.2,558.4c0-0.8-0.6-1.4-1.4-1.4c-0.8,0-1.4,0.6-1.4,1.4c0,0.8,0.6,1.4,1.4,1.4
						C541.6,559.9,542.2,559.2,542.2,558.4z"/>
					<circle class="st2" cx="288.3" cy="558.4" r="1.4"/>
					<path class="st2" d="M283.1,558.4c0-0.8-0.6-1.4-1.4-1.4c-0.8,0-1.4,0.6-1.4,1.4c0,0.8,0.6,1.4,1.4,1.4
						C282.5,559.9,283.1,559.2,283.1,558.4z"/>
					<path class="st2" d="M276.5,558.4c0-0.8-0.6-1.4-1.4-1.4c-0.8,0-1.4,0.6-1.4,1.4c0,0.8,0.6,1.4,1.4,1.4
						C275.8,559.9,276.5,559.2,276.5,558.4z"/>
					<path class="st2" d="M309.7,558.4c0-0.8-0.6-1.4-1.4-1.4c-0.8,0-1.4,0.6-1.4,1.4c0,0.8,0.6,1.4,1.4,1.4
						C309,559.9,309.7,559.2,309.7,558.4z"/>
					<circle class="st2" cx="295" cy="558.4" r="1.4"/>
					<path class="st2" d="M269.8,558.4c0-0.8-0.6-1.4-1.4-1.4c-0.8,0-1.4,0.6-1.4,1.4c0,0.8,0.6,1.4,1.4,1.4
						C269.2,559.9,269.8,559.2,269.8,558.4z"/>
					<path class="st2" d="M303,558.4c0-0.8-0.6-1.4-1.4-1.4c-0.8,0-1.4,0.6-1.4,1.4c0,0.8,0.6,1.4,1.4,1.4
						C302.4,559.9,303,559.2,303,558.4z"/>
					<path class="st2" d="M243.2,558.4c0-0.8-0.6-1.4-1.4-1.4c-0.8,0-1.4,0.6-1.4,1.4c0,0.8,0.6,1.4,1.4,1.4
						C242.6,559.9,243.2,559.2,243.2,558.4z"/>
					<path class="st2" d="M236.6,558.4c0-0.8-0.6-1.4-1.4-1.4c-0.8,0-1.4,0.6-1.4,1.4c0,0.8,0.6,1.4,1.4,1.4
						C236,559.9,236.6,559.2,236.6,558.4z"/>
					<circle class="st2" cx="261.7" cy="558.4" r="1.4"/>
					<path class="st2" d="M229.9,558.4c0-0.8-0.6-1.4-1.4-1.4c-0.8,0-1.4,0.6-1.4,1.4c0,0.8,0.6,1.4,1.4,1.4
						C229.3,559.9,229.9,559.2,229.9,558.4z"/>
					<circle class="st2" cx="255.1" cy="558.4" r="1.4"/>
					<circle class="st2" cx="394.6" cy="558.4" r="1.4"/>
					<path class="st2" d="M249.9,558.4c0-0.8-0.6-1.4-1.4-1.4c-0.8,0-1.4,0.6-1.4,1.4c0,0.8,0.6,1.4,1.4,1.4
						C249.2,559.9,249.9,559.2,249.9,558.4z"/>
					<path class="st2" d="M369.5,558.4c0-0.8-0.6-1.4-1.4-1.4c-0.8,0-1.4,0.6-1.4,1.4c0,0.8,0.6,1.4,1.4,1.4
						C368.8,559.9,369.5,559.2,369.5,558.4z"/>
					<circle class="st2" cx="354.8" cy="558.4" r="1.4"/>
					<circle class="st2" cx="361.4" cy="558.4" r="1.4"/>
					<path class="st2" d="M376.1,558.4c0-0.8-0.6-1.4-1.4-1.4c-0.8,0-1.4,0.6-1.4,1.4c0,0.8,0.6,1.4,1.4,1.4
						C375.5,559.9,376.1,559.2,376.1,558.4z"/>
					<path class="st2" d="M382.8,558.4c0-0.8-0.6-1.4-1.4-1.4c-0.8,0-1.4,0.6-1.4,1.4c0,0.8,0.6,1.4,1.4,1.4
						C382.1,559.9,382.8,559.2,382.8,558.4z"/>
					<path class="st2" d="M389.4,558.4c0-0.8-0.6-1.4-1.4-1.4c-0.8,0-1.4,0.6-1.4,1.4c0,0.8,0.6,1.4,1.4,1.4
						C388.8,559.9,389.4,559.2,389.4,558.4z"/>
					<path class="st2" d="M342.9,558.4c0-0.8-0.6-1.4-1.4-1.4c-0.8,0-1.4,0.6-1.4,1.4c0,0.8,0.6,1.4,1.4,1.4
						C342.3,559.9,342.9,559.2,342.9,558.4z"/>
					<circle class="st2" cx="328.2" cy="558.4" r="1.4"/>
					<circle class="st2" cx="321.5" cy="558.4" r="1.4"/>
					<path class="st2" d="M349.5,558.4c0-0.8-0.6-1.4-1.4-1.4c-0.8,0-1.4,0.6-1.4,1.4c0,0.8,0.6,1.4,1.4,1.4
						C348.9,559.9,349.5,559.2,349.5,558.4z"/>
					<path class="st2" d="M316.3,558.4c0-0.8-0.6-1.4-1.4-1.4c-0.8,0-1.4,0.6-1.4,1.4c0,0.8,0.6,1.4,1.4,1.4
						C315.7,559.9,316.3,559.2,316.3,558.4z"/>
					<path class="st2" d="M336.3,558.4c0-0.8-0.6-1.4-1.4-1.4c-0.8,0-1.4,0.6-1.4,1.4c0,0.8,0.6,1.4,1.4,1.4
						C335.6,559.9,336.3,559.2,336.3,558.4z"/>
				</g>
				<g>
					<path class="st2" d="M222.5,51.3c0-1-0.5-1.8-1.2-2.3h357.1c-0.7,0.5-1.2,1.4-1.2,2.3c0,1.8,1.5,3.3,3.3,3.3
						c2.1,0,3.8-1.7,3.8-3.8c0-1.7-1.2-4.6-3.5-4.6H220c-0.1,0-0.2,0-0.3,0c-2.4,0.2-4.3,2.1-4.3,4.6c0,2.1,1.7,3.8,3.8,3.8
						C221,54.5,222.5,53.1,222.5,51.3z"/>
					<path class="st2" d="M584.2,31.9c0-2.1-1.7-3.8-3.8-3.8c-1.8,0-3.3,1.5-3.3,3.3c0,1,0.5,1.8,1.2,2.3H221.2
						c0.7-0.5,1.2-1.4,1.2-2.3c0-1.8-1.5-3.3-3.3-3.3c-2.1,0-3.8,1.7-3.8,3.8c0,2.4,1.9,4.4,4.3,4.6c0.1,0,0.2,0,0.3,0h360.7
						C582.6,36.5,584.2,34.4,584.2,31.9z"/>
					<path class="st2" d="M568.8,41c0-0.8-0.6-1.4-1.4-1.4c-0.8,0-1.4,0.6-1.4,1.4c0,0.8,0.6,1.4,1.4,1.4
						C568.1,42.5,568.8,41.8,568.8,41z"/>
					<path class="st2" d="M469.1,41c0-0.8-0.6-1.4-1.4-1.4c-0.8,0-1.4,0.6-1.4,1.4c0,0.8,0.6,1.4,1.4,1.4
						C468.5,42.5,469.1,41.8,469.1,41z"/>
					<path class="st2" d="M462.5,41c0-0.8-0.6-1.4-1.4-1.4c-0.8,0-1.4,0.6-1.4,1.4c0,0.8,0.6,1.4,1.4,1.4
						C461.8,42.5,462.5,41.8,462.5,41z"/>
					<path class="st2" d="M455.8,41c0-0.8-0.6-1.4-1.4-1.4c-0.8,0-1.4,0.6-1.4,1.4c0,0.8,0.6,1.4,1.4,1.4
						C455.2,42.5,455.8,41.8,455.8,41z"/>
					<path class="st2" d="M475.8,41c0-0.8-0.6-1.4-1.4-1.4c-0.8,0-1.4,0.6-1.4,1.4c0,0.8,0.6,1.4,1.4,1.4
						C475.1,42.5,475.8,41.8,475.8,41z"/>
					<path class="st2" d="M482.4,41c0-0.8-0.6-1.4-1.4-1.4c-0.8,0-1.4,0.6-1.4,1.4c0,0.8,0.6,1.4,1.4,1.4
						C481.8,42.5,482.4,41.8,482.4,41z"/>
					<path class="st2" d="M449.2,41c0-0.8-0.6-1.4-1.4-1.4c-0.8,0-1.4,0.6-1.4,1.4c0,0.8,0.6,1.4,1.4,1.4
						C448.6,42.5,449.2,41.8,449.2,41z"/>
					<path class="st2" d="M429.3,41c0-0.8-0.6-1.4-1.4-1.4c-0.8,0-1.4,0.6-1.4,1.4c0,0.8,0.6,1.4,1.4,1.4
						C428.6,42.5,429.3,41.8,429.3,41z"/>
					<path class="st2" d="M422.6,41c0-0.8-0.6-1.4-1.4-1.4c-0.8,0-1.4,0.6-1.4,1.4c0,0.8,0.6,1.4,1.4,1.4
						C422,42.5,422.6,41.8,422.6,41z"/>
					<path class="st2" d="M416,41c0-0.8-0.6-1.4-1.4-1.4c-0.8,0-1.4,0.6-1.4,1.4c0,0.8,0.6,1.4,1.4,1.4C415.3,42.5,416,41.8,416,41z
						"/>
					<path class="st2" d="M409.3,41c0-0.8-0.6-1.4-1.4-1.4c-0.8,0-1.4,0.6-1.4,1.4c0,0.8,0.6,1.4,1.4,1.4
						C408.7,42.5,409.3,41.8,409.3,41z"/>
					<path class="st2" d="M442.5,41c0-0.8-0.6-1.4-1.4-1.4c-0.8,0-1.4,0.6-1.4,1.4c0,0.8,0.6,1.4,1.4,1.4
						C441.9,42.5,442.5,41.8,442.5,41z"/>
					<path class="st2" d="M489.1,41c0-0.8-0.6-1.4-1.4-1.4c-0.8,0-1.4,0.6-1.4,1.4c0,0.8,0.6,1.4,1.4,1.4
						C488.4,42.5,489.1,41.8,489.1,41z"/>
					<path class="st2" d="M435.9,41c0-0.8-0.6-1.4-1.4-1.4c-0.8,0-1.4,0.6-1.4,1.4c0,0.8,0.6,1.4,1.4,1.4
						C435.3,42.5,435.9,41.8,435.9,41z"/>
					<path class="st2" d="M582.1,41c0-0.8-0.6-1.4-1.4-1.4c-0.8,0-1.4,0.6-1.4,1.4c0,0.8,0.6,1.4,1.4,1.4
						C581.4,42.5,582.1,41.8,582.1,41z"/>
					<path class="st2" d="M223.3,41c0-0.8-0.6-1.4-1.4-1.4c-0.8,0-1.4,0.6-1.4,1.4c0,0.8,0.6,1.4,1.4,1.4
						C222.7,42.5,223.3,41.8,223.3,41z"/>
					<path class="st2" d="M555.5,41c0-0.8-0.6-1.4-1.4-1.4c-0.8,0-1.4,0.6-1.4,1.4c0,0.8,0.6,1.4,1.4,1.4
						C554.9,42.5,555.5,41.8,555.5,41z"/>
					<path class="st2" d="M548.9,41c0-0.8-0.6-1.4-1.4-1.4c-0.8,0-1.4,0.6-1.4,1.4c0,0.8,0.6,1.4,1.4,1.4
						C548.2,42.5,548.9,41.8,548.9,41z"/>
					<path class="st2" d="M562.1,41c0-0.8-0.6-1.4-1.4-1.4c-0.8,0-1.4,0.6-1.4,1.4c0,0.8,0.6,1.4,1.4,1.4
						C561.5,42.5,562.1,41.8,562.1,41z"/>
					<path class="st2" d="M402.7,41c0-0.8-0.6-1.4-1.4-1.4c-0.8,0-1.4,0.6-1.4,1.4c0,0.8,0.6,1.4,1.4,1.4
						C402.1,42.5,402.7,41.8,402.7,41z"/>
					<path class="st2" d="M575.4,41c0-0.8-0.6-1.4-1.4-1.4c-0.8,0-1.4,0.6-1.4,1.4c0,0.8,0.6,1.4,1.4,1.4
						C574.8,42.5,575.4,41.8,575.4,41z"/>
					<path class="st2" d="M502.3,41c0-0.8-0.6-1.4-1.4-1.4c-0.8,0-1.4,0.6-1.4,1.4c0,0.8,0.6,1.4,1.4,1.4
						C501.7,42.5,502.3,41.8,502.3,41z"/>
					<path class="st2" d="M509,41c0-0.8-0.6-1.4-1.4-1.4c-0.8,0-1.4,0.6-1.4,1.4c0,0.8,0.6,1.4,1.4,1.4C508.4,42.5,509,41.8,509,41z
						"/>
					<path class="st2" d="M515.6,41c0-0.8-0.6-1.4-1.4-1.4c-0.8,0-1.4,0.6-1.4,1.4c0,0.8,0.6,1.4,1.4,1.4
						C515,42.5,515.6,41.8,515.6,41z"/>
					<path class="st2" d="M495.7,41c0-0.8-0.6-1.4-1.4-1.4c-0.8,0-1.4,0.6-1.4,1.4c0,0.8,0.6,1.4,1.4,1.4
						C495.1,42.5,495.7,41.8,495.7,41z"/>
					<path class="st2" d="M522.3,41c0-0.8-0.6-1.4-1.4-1.4c-0.8,0-1.4,0.6-1.4,1.4c0,0.8,0.6,1.4,1.4,1.4
						C521.6,42.5,522.3,41.8,522.3,41z"/>
					<path class="st2" d="M535.6,41c0-0.8-0.6-1.4-1.4-1.4c-0.8,0-1.4,0.6-1.4,1.4c0,0.8,0.6,1.4,1.4,1.4
						C534.9,42.5,535.6,41.8,535.6,41z"/>
					<path class="st2" d="M528.9,41c0-0.8-0.6-1.4-1.4-1.4c-0.8,0-1.4,0.6-1.4,1.4c0,0.8,0.6,1.4,1.4,1.4
						C528.3,42.5,528.9,41.8,528.9,41z"/>
					<path class="st2" d="M542.2,41c0-0.8-0.6-1.4-1.4-1.4c-0.8,0-1.4,0.6-1.4,1.4c0,0.8,0.6,1.4,1.4,1.4
						C541.6,42.5,542.2,41.8,542.2,41z"/>
					<path class="st2" d="M289.7,41c0-0.8-0.6-1.4-1.4-1.4c-0.8,0-1.4,0.6-1.4,1.4c0,0.8,0.6,1.4,1.4,1.4
						C289.1,42.5,289.7,41.8,289.7,41z"/>
					<path class="st2" d="M283.1,41c0-0.8-0.6-1.4-1.4-1.4c-0.8,0-1.4,0.6-1.4,1.4c0,0.8,0.6,1.4,1.4,1.4
						C282.5,42.5,283.1,41.8,283.1,41z"/>
					<path class="st2" d="M276.5,41c0-0.8-0.6-1.4-1.4-1.4c-0.8,0-1.4,0.6-1.4,1.4c0,0.8,0.6,1.4,1.4,1.4
						C275.8,42.5,276.5,41.8,276.5,41z"/>
					<path class="st2" d="M309.7,41c0-0.8-0.6-1.4-1.4-1.4c-0.8,0-1.4,0.6-1.4,1.4c0,0.8,0.6,1.4,1.4,1.4
						C309,42.5,309.7,41.8,309.7,41z"/>
					<path class="st2" d="M296.4,41c0-0.8-0.6-1.4-1.4-1.4c-0.8,0-1.4,0.6-1.4,1.4c0,0.8,0.6,1.4,1.4,1.4
						C295.7,42.5,296.4,41.8,296.4,41z"/>
					<path class="st2" d="M269.8,41c0-0.8-0.6-1.4-1.4-1.4c-0.8,0-1.4,0.6-1.4,1.4c0,0.8,0.6,1.4,1.4,1.4
						C269.2,42.5,269.8,41.8,269.8,41z"/>
					<path class="st2" d="M303,41c0-0.8-0.6-1.4-1.4-1.4c-0.8,0-1.4,0.6-1.4,1.4c0,0.8,0.6,1.4,1.4,1.4C302.4,42.5,303,41.8,303,41z
						"/>
					<path class="st2" d="M243.2,41c0-0.8-0.6-1.4-1.4-1.4c-0.8,0-1.4,0.6-1.4,1.4c0,0.8,0.6,1.4,1.4,1.4
						C242.6,42.5,243.2,41.8,243.2,41z"/>
					<path class="st2" d="M236.6,41c0-0.8-0.6-1.4-1.4-1.4c-0.8,0-1.4,0.6-1.4,1.4c0,0.8,0.6,1.4,1.4,1.4
						C236,42.5,236.6,41.8,236.6,41z"/>
					<path class="st2" d="M263.2,41c0-0.8-0.6-1.4-1.4-1.4c-0.8,0-1.4,0.6-1.4,1.4c0,0.8,0.6,1.4,1.4,1.4
						C262.5,42.5,263.2,41.8,263.2,41z"/>
					<path class="st2" d="M229.9,41c0-0.8-0.6-1.4-1.4-1.4c-0.8,0-1.4,0.6-1.4,1.4c0,0.8,0.6,1.4,1.4,1.4
						C229.3,42.5,229.9,41.8,229.9,41z"/>
					<path class="st2" d="M256.5,41c0-0.8-0.6-1.4-1.4-1.4c-0.8,0-1.4,0.6-1.4,1.4c0,0.8,0.6,1.4,1.4,1.4
						C255.9,42.5,256.5,41.8,256.5,41z"/>
					<path class="st2" d="M396,41c0-0.8-0.6-1.4-1.4-1.4c-0.8,0-1.4,0.6-1.4,1.4c0,0.8,0.6,1.4,1.4,1.4C395.4,42.5,396,41.8,396,41z
						"/>
					<path class="st2" d="M249.9,41c0-0.8-0.6-1.4-1.4-1.4c-0.8,0-1.4,0.6-1.4,1.4c0,0.8,0.6,1.4,1.4,1.4
						C249.2,42.5,249.9,41.8,249.9,41z"/>
					<path class="st2" d="M369.5,41c0-0.8-0.6-1.4-1.4-1.4c-0.8,0-1.4,0.6-1.4,1.4c0,0.8,0.6,1.4,1.4,1.4
						C368.8,42.5,369.5,41.8,369.5,41z"/>
					<path class="st2" d="M356.2,41c0-0.8-0.6-1.4-1.4-1.4c-0.8,0-1.4,0.6-1.4,1.4c0,0.8,0.6,1.4,1.4,1.4
						C355.5,42.5,356.2,41.8,356.2,41z"/>
					<path class="st2" d="M362.8,41c0-0.8-0.6-1.4-1.4-1.4c-0.8,0-1.4,0.6-1.4,1.4c0,0.8,0.6,1.4,1.4,1.4
						C362.2,42.5,362.8,41.8,362.8,41z"/>
					<path class="st2" d="M376.1,41c0-0.8-0.6-1.4-1.4-1.4c-0.8,0-1.4,0.6-1.4,1.4c0,0.8,0.6,1.4,1.4,1.4
						C375.5,42.5,376.1,41.8,376.1,41z"/>
					<path class="st2" d="M382.8,41c0-0.8-0.6-1.4-1.4-1.4c-0.8,0-1.4,0.6-1.4,1.4c0,0.8,0.6,1.4,1.4,1.4
						C382.1,42.5,382.8,41.8,382.8,41z"/>
					<path class="st2" d="M389.4,41c0-0.8-0.6-1.4-1.4-1.4c-0.8,0-1.4,0.6-1.4,1.4c0,0.8,0.6,1.4,1.4,1.4
						C388.8,42.5,389.4,41.8,389.4,41z"/>
					<path class="st2" d="M342.9,41c0-0.8-0.6-1.4-1.4-1.4c-0.8,0-1.4,0.6-1.4,1.4c0,0.8,0.6,1.4,1.4,1.4
						C342.3,42.5,342.9,41.8,342.9,41z"/>
					<path class="st2" d="M329.6,41c0-0.8-0.6-1.4-1.4-1.4c-0.8,0-1.4,0.6-1.4,1.4c0,0.8,0.6,1.4,1.4,1.4
						C329,42.5,329.6,41.8,329.6,41z"/>
					<path class="st2" d="M323,41c0-0.8-0.6-1.4-1.4-1.4c-0.8,0-1.4,0.6-1.4,1.4c0,0.8,0.6,1.4,1.4,1.4C322.3,42.5,323,41.8,323,41z
						"/>
					<path class="st2" d="M349.5,41c0-0.8-0.6-1.4-1.4-1.4c-0.8,0-1.4,0.6-1.4,1.4c0,0.8,0.6,1.4,1.4,1.4
						C348.9,42.5,349.5,41.8,349.5,41z"/>
					<path class="st2" d="M316.3,41c0-0.8-0.6-1.4-1.4-1.4c-0.8,0-1.4,0.6-1.4,1.4c0,0.8,0.6,1.4,1.4,1.4
						C315.7,42.5,316.3,41.8,316.3,41z"/>
					<path class="st2" d="M336.3,41c0-0.8-0.6-1.4-1.4-1.4c-0.8,0-1.4,0.6-1.4,1.4c0,0.8,0.6,1.4,1.4,1.4
						C335.6,42.5,336.3,41.8,336.3,41z"/>
				</g>
			</g>
		</g>
		<g>
			<g>
				<path class="st2" d="M662.1,44c0-3.8-3.3-7.8-6.4-9.8c0.1-0.1,0.1-0.2,0.3-0.2c3.4,2.2,6.7,6.4,6.4,10.6
					c-0.1,0.7-0.2,1.5-0.5,2.3c-0.1,0.1-0.3,0.1-0.4,0.1C661.8,46,662.1,44.8,662.1,44z M654.8,53c-3.3,0.4-5.8-2.3-6.6-5.3
					c-0.3,0-0.7,0-1.1-0.1c1,3.1,3.9,5.7,7.3,5.7c3.2,0,6.1-3,7.3-6c-0.1,0-0.3,0.1-0.4,0C660.2,50.1,657.6,52.6,654.8,53z
					 M646.8,45.2c0,0.5,0,1,0.1,1.6c0.2,0.1,0.7,0.2,1.1,0.2c0,0,0,0,0,0c-0.1-0.7-0.2-1.4-0.1-2.1c0.3-4.7,7.8-10.8,7.9-11
					c5.8-4.5,28.3-9.6,32.4,4.1c0.2,0,0.3,0.1,0.6,0.2c-5.4-16.3-28.7-9-33.6-4.5C653.3,35,647,40.3,646.8,45.2z M588.9,56.2
					c-0.3,1.2,0.6,1.9,1.5,2.4c1.3,0.6,2.6,1,4,1.2c0.7,0.1,5.2,0.7,5.4,0.7c2.3,0.2,4.5-0.1,6.7-0.7c4.7-1.2,8.9-3.7,12.8-6.6
					c3.6-2.6,6.9-5.6,10-8.8c0.8-0.8,1.6-1.6,2.3-2.5c-1.9,2.9-3.9,5.7-6,8.4c-2.8,3.6-5.9,7-9.6,9.7c-1.6,1.2-3.4,2.3-5.2,3.3
					c-0.2,0.1-1.9,0.9-3,1.4c-0.9,0.1-1.8,0.1-2.7,0.1c-0.9,0-3.1,0.1-2.9,0c-0.9,0.2-1.5,1.3-1,2.2c0.5,0.9,1.4,0.9,2.2,0.6
					c1.1-0.5,2.1-1.1,3.1-1.7c0.4-0.3,1.4-0.7,1.7-1.2c1.2-0.5,2.9-1.2,3.1-1.3c2-1,3.8-2.2,5.6-3.5c3.8-2.8,7-6.3,9.8-10
					c1.8-2.3,3.4-4.6,5-7c-0.6,1.2-1.1,2.4-1.5,3.6c-1.2,3.8-1.4,7.7-1.1,11.6c0.3,4,1.4,8.4,0,12.3c-0.7,2.1-2.2,4.2-4.2,5.2
					c-2.2,1-4.9,0.8-7.1-0.2c-2-0.9-3.6-2.7-3.8-5c-0.2-2.1,0.8-4.3,2.4-5.5c1.6-1.3,4.2-1.5,5.7,0.2c0.7,0.8,0.9,1.9,0.3,2.8
					c-0.3,0.4-0.7,0.7-1.3,0.6c-0.3-0.1-1-0.6-0.6-0.9c0.6,0.8,1.7-0.4,0.7-1.1c-0.8-0.6-1.8,0.1-2.1,1c-0.3,1.1,0.7,2.1,1.7,2.3
					c1,0.2,1.9-0.3,2.5-1c1.3-1.6,0.8-3.7-0.7-4.9c-1.4-1.2-3.4-1.5-5.2-0.9c-4.1,1.3-6,6.5-4,10.2c2,3.8,7.2,5.3,11.1,4
					c4.6-1.5,6.4-6.8,6.4-11.2c0-0.4,0-0.9,0-1.3c0.7,2.2,1.6,4.2,2.8,6.1c2.7,4.1,7.7,8.6,13,7.9c2-0.3,4-1.2,5.3-2.8
					c0.6-0.7,1.1-1.7,1.5-2.4c0.8-1.5,1.4-3.1,2.3-4.6c1.6-2.9,3.8-5.8,7.4-6c2.9-0.2,5.6,1.6,6.6,4.4c1,2.7-0.2,5.7-3,6.7
					c-1.3,0.4-2.7,0.2-3.7-0.8c-1-1-1.3-2.7-0.1-3.7c0.5-0.4,1.3-0.7,1.9-0.4c0.6,0.2,1,0.9,0.8,1.6c-0.2,0.5-0.9,1-1.4,0.5
					c-0.6-0.6,0.4-1.2,0.5-0.6c-0.1-0.5-0.7-0.2-0.8,0.2c-0.1,0.4,0.3,0.7,0.7,0.7c0.8,0,1.2-0.9,0.9-1.6c-0.7-1.9-3.2-0.9-3.7,0.6
					c-0.6,1.7,0.8,3.5,2.4,4c1.6,0.5,3.3-0.2,4.4-1.3c2.2-2.1,2.4-6,0.9-8.6c-1.7-2.9-5.2-4.1-8.5-2.7c-2.8,1.2-5.2,3.7-6.5,7.5
					c-0.5,1.3-0.9,2.7-1.5,4c0.2-1.8-0.5-3.6-2-4.7c-1.8-1.3-4.8-1-5.3,1.5c-0.2,1,0.5,2.3,1.7,2.2c0.5,0,1-0.4,1.1-0.9
					c0-0.2-0.5-1-0.6-0.7c-0.1,0.2,0.6,0.4,0.3,1c-0.3,0.5-1,0.5-1.4,0.2c-0.7-0.5-0.7-1.4-0.3-2.1c1.4-2.4,4.5-0.6,5.3,1.3
					c0.9,2.4-0.7,4.8-2.8,5.9c-2.1,1.1-4.7,1.4-6.8,0.4c-10.9-5.5-12.2-19.7-12.3-22.3c0-3.5,0.6-7,2.1-10.2
					c0.1-0.2,0.2-0.4,0.3-0.6c-1.1,3.1-1.8,6.5-1.7,9.8c0,3.6,0.9,7.2,2.7,10.4c1.5,2.7,4.4,6.7,8.7,9.3c0.3,0.2,1.9,0.6,1.6-0.3
					c-0.2-0.7-1-1-1.6-1.3c-4.1-1.8-8.2-6.8-9-8.3c-1.6-3.2-2.3-6.9-2.3-10.5c0.1-3.7,1-7.5,2.5-10.9c0.1-0.2,0.2-0.4,0.3-0.6
					c0.2-0.3,0.4-0.7,0.6-1c-0.4,0.8-0.7,1.6-1,2.4c-1,2.7-1.7,5.6-1.7,8.6c0,2.8,0.7,5.5,2.1,8c0.7,1.2,2.4,5,6.7,7.7
					c0.1,0.1,0.4,0.3,0,0c1.9,1.2,2.1,0.1,1.4-0.4c-2-1.3-5.1-3.1-7.9-7.6c-1.5-2.5-1.9-4.9-2.1-7.9c-0.2-3,0.9-6.4,2-9.2
					c0,0,0-0.1,0.1-0.2c-0.3,0.7-0.5,1.4-0.7,2.1c-0.8,3.4-0.6,7,0.7,10.2c1.3,3.3,3.6,6.3,6.6,8.2c1.4,0.9,4.3,2.5,9.2,2.8
					c3,0.2,4.6-0.9,4-1.6c-0.5-0.6-1.5,0-2.2,0.2c-5.1,1.6-10-0.9-11.4-2c-2.9-2-5-5-6.2-8.3c-1.2-3.3-1.2-7-0.2-10.4
					c0.1-0.5,0.3-0.9,0.5-1.4c-0.7,2.3-0.8,4.7-0.4,7c0.9,5,3.9,9.1,8.4,11.5c1.1,0.7,2-0.7,0.3-1.5c-5.7-2.6-7-6.4-7.8-9.2
					c-0.8-2.9-0.7-6,0.2-8.8c0.1-0.4,0.6-1.7,1.9-3.3c-1,2.4-1.7,5-1.6,7.3c0.2,4.1,2.3,7.7,6,9.4c0.7,0.4,1.6-0.4,0-1.2
					c-4.5-2.2-5.1-5.4-5.4-7.6c-0.3-2.3,0-4.7,0.7-6.8c0-0.1,0.3-0.8,0.7-1.6c0.2-0.3,0.4-0.6,0.8-0.9c-0.3,0.7-0.6,1.4-0.8,2
					c-0.4,1.4-0.8,2.8-0.8,4.3c-0.1,2.8,1.2,5,3.4,6.7c1.1,0.9,2.2,0.2,0.5-0.9c-2.9-2.2-3.9-4.1-2.9-9.8c0.1-0.7,0.7-2.3,0.7-2.4
					c2.3-1.2,4.7-2.3,7.3-2.8c1.5-0.3,2.9-0.5,4.4-0.5c0.9,0,2.9,0,5.1,0.7c0.1-0.1,0.1-0.2,0.3-0.3c-1-0.3-2.6-0.6-3.6-0.9
					c-6.5-1.5-13.1-0.9-18.7,2.8c-1.7,1.1-3.2,2.4-4.7,3.7c-3.2,2.8-7,5-10.6,7.1c-6.4,3.7-8.2,0.2-8-1.2c0.1-0.4,0.1-0.9-0.3-1.1
					c-4.3-1.2-5.7,3.4-4.8,5c-0.9-0.1-0.9-1.1-1.1-1.8c-0.3-1-1.2-1.8-2.1-2.2c-0.9-0.3-1.8-0.4-2.7-0.4c-0.7,0-1.5,0.2-2.2-0.1
					c-2.2-0.9-3.6-3.2-3.3-5.6c0.3-2,1.9-4,3.8-4.6c2-0.6,4.3-0.1,5.4,1.2c0.1,0.3,0.8-0.1,0.9-0.3c0.1-0.3-0.1-0.6-0.2-0.8
					c-0.5-0.7-1.3-1.3-2.1-1.7c-4.4-2-9.5,1.5-11.4,5.6c-1.9,4.2,0.8,10,4.1,13.1c3.5,3.2,8.3,4.4,13,3.9c4.3-0.5,8.4-2.4,12.1-4.6
					c2.7-1.6,5.2-3.3,7.5-5.3c2-1.8,4-3.5,6.2-5.2c-0.2,0.2-0.3,0.4-0.5,0.6c-1.4,1.5-2.8,3-4.2,4.5c-3,3-6.3,5.9-9.8,8.4
					c-3.7,2.6-7.7,4.9-12.1,5.9c-2.1,0.5-4.2,0.7-6.3,0.5c-0.2,0-3.1-0.5-5.2-2.4c-0.8-0.7-2.5-2.7-2.3-2.5
					C590.9,54.3,589.2,55,588.9,56.2z M687,43.5c-0.8,0.6-2.4,1.1-3.3,0.4c-0.5-0.3-0.4-1.8,0.3-1.8c0.2,0,0.6-0.1,0.2-0.3
					c-0.4-0.2-0.5,0-0.8,0.4c-0.5,0.7-0.7,1.7,0.3,2.1c1,0.5,2.4,0.1,3.3-0.5c1.2-0.8,2-2.5,2-4c-0.2-0.1-0.4-0.1-0.6-0.2
					C688.6,41.4,687.7,42.9,687,43.5z M612.8,42.3C612.8,42.3,612.6,42.2,612.8,42.3L612.8,42.3z M613,44.6c2,0.2,3.9-0.9,5.5-1.9
					c3.7-2.4,7-5.5,10.6-8.2c3.7-2.8,7.8-5.4,12.4-6.2c2.2-0.4,4.4-0.4,6.6,0.1c0.3,0.1,2.8,0.9,3.8,1.4c-0.9-0.5-3-1.4-3.2-1.5
					c-1.8-0.6-3.7-0.9-5.6-0.8c-4.1,0.2-8.1,1.8-11.6,3.9c-3.6,2.1-6.9,4.7-10.3,7.1c-1.5,1.1-3.1,2.2-4.8,3.1
					c-0.7,0.3-1.4,0.6-2.1,0.8c-0.6,0.1-1-0.1-1.5-0.1c-0.8-0.3-1.9,0.4-1.6,1.3C611.4,44.3,612.3,44.5,613,44.6z M642.1,73.6
					C641.8,73.4,642.8,74,642.1,73.6L642.1,73.6z M694.4,39.9c3,1,5.8,2.3,8.7,3.4c3-2.3,6.6-3.7,10.4-3.5c4.7,0.3,8,1.5,12.1,2.7
					c3.9,1.1,8.4,2.6,12.4,2.8c3,0.2,6.4-1.1,7.3-4.2c0.5-1.6,0.3-3.8-0.7-5.2c-0.5-0.7-1.5-1.4-2.4-1.5c-0.2,0-1.5,0-1.6,0.1
					c-0.6,1.3-1.8,2.1-1.1,3.8c0.5,1.2,1.6,1.9,2.7,1.7c0.7-1.4-0.3-3.5-2.2-2.5c0,0,0.1,0,0.1-0.1c0,0-0.1,0-0.1,0.1
					c1.1-0.6,3-2.1,3.9-0.3c0.8,1.7-0.9,2.7-2.1,3.4c-0.1,0-0.1,0.1-0.2,0.1c0,0,0,0-0.1,0c0,0,0,0,0,0c-2.8,1.4-4.5-2.1-3-4.7
					c1.7-3,6.2-3.8,7.9-0.2c1.3,2.8,0.2,5.9-2,7.8c-6.3,5.3-13.6,1.5-20.4-0.5c-3.8-1.1-7.3-2.6-11.6-2.4c-3.6,0.2-6.5,1.4-8.7,3
					c3.4,1.3,6.9,2.1,10.8,1.7c2.8-0.3,5.7-1.3,8.1-2.6c0.1,0,0.2,0.1,0.3,0.2c-3.6,2-7.6,3-11.3,3c-3,0-6-0.6-8.9-1.5
					c-2.3,2.1-3.4,4.5-3.3,6.2c0.3,2.9,3,5.1,5.7,5.6c3,0.6,11.1-2.1,11.8-8.8c-0.3,4.8-3.3,7.6-7.6,9.2c-3.6,1.3-8.6,0.9-10.7-2.6
					c-2.1-3.6,0.5-7.5,3.2-9.8c0,0,0,0,0,0c-0.2-0.1-0.3-0.1-0.5-0.2c-6.6-2-13.1-5.5-20.1-5.6c-3.7-0.1-6.8,1.2-9.7,3.4
					c-0.2,0.2-0.4,0.3-0.6,0.5c2.7,1.6,4.5,4.1,4.9,7.3c0.3,2.4-0.5,4.9-2.8,6.1c-1.7,0.9-4,0.7-5.5-0.5c-2.3-1.8-1.9-5.2-1-7.6
					c0.8-2,2.2-3.7,3.8-5.2c-0.5-0.3-1.1-0.6-1.7-0.9c-1.8-0.7-3.9-1-5.8-0.3c-0.3,0.1-0.6,0.3-0.9,0.5c0-0.1,0-0.1-0.1-0.3
					c2.3-1.5,5.7-0.8,8,0.3c0.2,0.1,0.5,0.2,0.7,0.4c1.3-1.1,2.8-2,4.3-2.7C681,36.6,688.6,37.9,694.4,39.9z M670.9,42.4
					c-2.6,2.4-4.3,5.9-3.6,9.7c0.5,2.5,2.1,4.2,4.6,3.7c2.9-0.5,3.4-3.6,3.2-6.3C674.7,46.4,673.3,44,670.9,42.4z M740.9,36.9
					C740.9,36.9,740.9,37,740.9,36.9C740.9,37,740.9,36.9,740.9,36.9z M740.4,37.2c-0.1,0-0.2,0.1-0.3,0.2
					C740.2,37.3,740.3,37.3,740.4,37.2z M740.8,37c0,0-0.1,0.1-0.2,0.1C740.7,37.1,740.7,37,740.8,37z M661.6,47.2
					c-0.9,0.1-1.9-0.4-2.1-1.2c-0.3-1,0.5-2.2,1.2-3.2c0,0-0.1,0-0.1,0c-2.4-1-6,0.7-7,3.1c0.4,0,0.9,0,1.3,0.1
					c1.2,0.3,2.5,1.4,2.2,2.8c-0.2,0.9-1.5,1.3-2.3,1c-1.2-0.4-2-1.8-2-2.9c0-0.2,0.1-0.5,0.1-0.7c-1.5,0.3-3,1.3-4.5,1.4
					c-1.4,0.1-3.9-0.4-3.5-2.3c0.2-0.7,1.1-1.7,1.7-2.1c-1.3,1-1.7,2.3-0.8,3.3c1,1,2.9,0.8,4.1,0.4c1-0.3,2-0.8,3-0.9
					c0.3-0.7,0.9-1.4,1.4-1.8c1.6-1.5,4.2-2.3,6.3-1.5c0.2-0.2,0.9-0.8,0.9-0.9c0,0.1,0.1,0.2,0.1,0.3c-0.2,0.2-0.5,0.5-0.7,0.8
					c0,0,0.1,0,0.1,0c0.3,0.2,0.6,0.4,0.9,0.7c0,0.2,0,0.3,0,0.4c-0.3-0.3-0.8-0.8-1.1-1c-0.6,0.8-0.9,1.7-0.9,2.7
					c0.1,1.4,2,1.9,2.6,0.6c0.3-0.6,0.2-1.2-0.2-1.8c0-0.2,0-0.3,0-0.4C663.2,45.2,663.4,47,661.6,47.2z M653.5,46.1
					C653.5,46.1,653.5,46.1,653.5,46.1c-0.5,1.4,0.7,3.7,2.3,3.5c0.8-0.1,1-1,0.9-1.6c-0.3-1.1-1.7-1.8-2.8-1.9
					C653.8,46,653.7,46,653.5,46.1z M722.5,36.7c2.4,1.1,5.8,0,5.9-3c-0.4,3-4.7,4.2-6.5,1.7c-1.8-2.4-1.4-5.8,0.9-7.6
					c2-1.5,4.6-1.6,6.3,0.3c1.4,1.4,2,3.5,1.7,5.4c-0.4,2.9-2.5,5.3-4.7,7.1c-0.6,0.5-1.5,1-2.2,1.4c0.1,0,0.3,0.1,0.4,0.1
					c4.1-2.5,8.7-6.7,7-11.6c-0.5-1.5-2-3.1-3.5-3.7c-2.1-0.9-4.6,0.1-6.1,1.8C719.7,30.8,719.3,35.3,722.5,36.7z M747.4,129.1
					c-0.7,0.1-1.5,0.3-2.3,0.6c-0.1,0.1-0.1,0.3-0.1,0.4c0.9-0.3,2-0.6,2.9-0.7c3.8-0.2,7.9,3,10,6.1c0.1-0.1,0.2-0.1,0.2-0.3
					C755.9,131.8,751.6,128.7,747.4,129.1z M738.9,137.4c0.1,3.4,2.8,6.2,5.9,7.1c-0.1-0.3-0.1-0.8-0.1-1.1c-3-0.7-5.8-3.1-5.5-6.4
					c0.3-2.9,2.7-5.5,5.5-6.8c0-0.1,0-0.3,0-0.4C741.7,131.2,738.9,134.2,738.9,137.4z M747.5,143.6c-0.7,0.1-1.4,0-2.1-0.1
					c0,0,0,0,0,0c0,0.4,0.1,0.9,0.2,1.1c0.5,0.1,1,0.1,1.6,0.1c4.9-0.4,10-6.9,11.3-8.9c4.3-5,10.9-28.6-5.6-33.4
					c0.1,0.3,0.1,0.4,0.2,0.6c13.8,3.7,9.4,26.3,5.1,32.3C758.1,135.5,752.2,143.1,747.5,143.6z M759.4,188.3
					c-0.2-0.1-0.5-0.3-0.8-0.2c-0.2,0.1-0.5,0.8-0.2,0.9c1.4,1,1.9,3.4,1.4,5.4c-0.5,2-2.4,3.6-4.5,3.9c-2.3,0.4-4.7-1-5.7-3.1
					c-0.3-0.6-0.2-1.5-0.2-2.2c0-0.9-0.1-1.8-0.5-2.7c-0.4-0.9-1.2-1.8-2.2-2.1c-0.7-0.2-1.7-0.1-1.8-1.1c1.6,0.9,6.2-0.6,4.8-4.9
					c-0.1-0.4-0.7-0.4-1.1-0.3c-1.4,0.2-4.9-1.5-1.4-8c2-3.7,4.1-7.6,6.8-10.8c1.3-1.6,2.5-3.1,3.6-4.8c3.5-5.7,3.9-12.4,2.2-18.8
					c-0.2-0.9-0.6-2.6-1-3.5c-0.1,0.2-0.2,0.2-0.3,0.3c0.7,2.2,0.8,4.2,0.9,5.1c0.1,1.5-0.1,3-0.4,4.4c-0.5,2.6-1.4,5-2.6,7.4
					c-0.1,0-1.6,0.6-2.4,0.8c-5.6,1.1-7.6,0.2-9.9-2.6c-1.1-1.7-1.8-0.6-0.9,0.5c1.9,2.2,4,3.4,6.9,3.2c1.4-0.1,2.9-0.4,4.2-0.9
					c0.6-0.2,1.3-0.5,2-0.8c-0.3,0.4-0.5,0.6-0.9,0.8c-0.8,0.4-1.5,0.7-1.6,0.7c-2.2,0.8-4.5,1.2-6.8,1c-2.2-0.2-5.4-0.7-7.8-5.2
					c-0.8-1.5-1.6-0.6-1.2,0.1c1.8,3.7,5.5,5.7,9.6,5.7c2.3,0,4.8-0.7,7.2-1.8c-1.5,1.3-2.8,1.8-3.2,2c-2.8,1-5.9,1.2-8.8,0.5
					c-2.8-0.7-6.6-1.9-9.4-7.5c-0.8-1.7-2.3-0.8-1.5,0.3c2.6,4.3,6.7,7.3,11.8,8c2.3,0.3,4.7,0.1,7-0.7c-0.4,0.2-0.9,0.4-1.4,0.5
					c-3.3,1.2-7,1.2-10.4,0.2c-3.3-1-6.4-3.1-8.5-5.9c-1.1-1.4-3.8-6.2-2.3-11.3c0.2-0.7,0.8-1.7,0.2-2.2c-0.8-0.6-1.8,1-1.5,4
					c0.4,4.9,2.1,7.7,3.1,9.1c2,2.9,5.1,5.1,8.4,6.3c3.3,1.2,6.9,1.3,10.2,0.4c0.7-0.2,1.4-0.5,2.1-0.8c-0.1,0.1-0.2,0.1-0.2,0.1
					c-2.7,1.2-6.1,2.4-9.1,2.3c-3-0.1-5.4-0.4-7.9-1.8c-4.6-2.7-6.5-5.7-7.8-7.7c-0.5-0.7-1.6-0.4-0.3,1.4c-0.3-0.4-0.1-0.1,0,0
					c2.9,4.2,6.7,5.8,8,6.4c2.5,1.3,5.2,1.9,8,1.9c2.9-0.1,5.8-0.9,8.5-2c0.8-0.3,1.6-0.7,2.4-1.1c-0.3,0.2-0.6,0.5-1,0.7
					c-0.2,0.1-0.4,0.2-0.6,0.3c-3.4,1.6-7.1,2.6-10.8,2.8c-3.6,0.2-7.3-0.4-10.5-1.9c-1.6-0.7-6.7-4.7-8.6-8.7
					c-0.3-0.6-0.6-1.4-1.3-1.5c-0.9-0.2-0.4,1.3-0.2,1.6c2.7,4.3,6.8,7,9.5,8.4c3.2,1.7,6.9,2.4,10.5,2.3c3.3-0.1,6.7-0.8,9.8-2.1
					c-0.2,0.1-0.4,0.2-0.6,0.3c-3.2,1.5-6.6,2.3-10.1,2.4c-2.6,0.1-16.8-0.8-22.7-11.5c-1.1-2.1-0.9-4.7,0.1-6.8
					c1.1-2.1,3.4-3.8,5.9-3c2,0.7,3.8,3.8,1.5,5.3c-0.7,0.4-1.6,0.5-2.1-0.2c-0.3-0.4-0.4-1.1,0.1-1.4c0.5-0.4,0.8,0.3,1,0.2
					c0.2-0.1-0.5-0.6-0.8-0.6c-0.5,0.1-0.9,0.6-0.9,1.1c0,1.1,1.3,1.9,2.3,1.6c2.5-0.6,2.7-3.6,1.4-5.3c-1.4-1.9-4-2.4-6.1-1.4
					c-0.1,0-0.1,0.1-0.2,0.1c1.1-1,2.4-1.9,3.6-2.7c3.2-2.4,4.9-5.4,5.2-8.4c0.4-3.6-1.8-6.5-5.1-7.3c-2.8-0.7-6.5,0.6-7.9,3.3
					c-0.7,1.4-0.9,3.3,0.1,4.6c0.9,1.4,3,2.1,4.5,1.1c1.3-0.9,1.5-3.6-0.5-3.7c-0.7,0-1.5,0.6-1.2,1.4c0.1,0.4,0.6,0.6,0.9,0.5
					c0.3-0.2,0.4-0.9-0.1-0.8c0.6-0.1,0.3,1.1-0.5,0.7c-0.6-0.3-0.4-1.2,0.1-1.5c0.5-0.4,1.3-0.1,1.7,0.3c0.5,0.5,0.4,1.3,0.2,2
					c-0.6,1.4-2.3,1.6-3.6,1c-1.3-0.6-1.9-1.9-1.9-3.3c0.1-3,2.6-5,5.5-4.9c2.9,0.1,5.4,2.2,6.1,5c0.8,3.4-1.3,6.5-3.6,8.8
					c-1.2,1.2-2.5,2.3-3.7,3.5c-0.5,0.5-1.2,1.1-1.7,1.8c-1.1,1.3-1.8,3-1.9,4.7c-0.5,5.3,4.1,10.2,8.3,12.7c1.9,1.2,4,2,6.2,2.6
					c-0.4,0-0.9,0-1.3,0c-4.4,0.1-9.6,2.1-11,6.7c-1.2,4,0.5,9.1,4.3,11c3.8,1.9,8.9-0.2,10.1-4.4c0.5-1.8,0.2-3.8-1.1-5.1
					c-1.3-1.4-3.4-1.8-5-0.5c-0.7,0.6-1.2,1.5-0.9,2.5c0.2,1,1.3,2,2.4,1.6c0.9-0.3,1.5-1.3,0.9-2.1c-0.7-1-1.9,0.2-1.1,0.7
					c-0.4,0.5-0.9-0.2-0.9-0.5c-0.1-0.5,0.2-1,0.6-1.3c0.9-0.7,2-0.5,2.8,0.2c1.7,1.4,1.6,4,0.3,5.7c-1.2,1.7-3.4,2.7-5.4,2.6
					c-2.3-0.1-4.1-1.7-5.1-3.6c-1.1-2.1-1.4-4.8-0.4-7c0.9-2.1,3-3.6,5-4.4c3.9-1.5,8.3-0.6,12.3-0.4c3.9,0.2,7.9-0.2,11.6-1.5
					c1.2-0.4,2.4-1,3.5-1.6c-2.3,1.7-4.6,3.4-6.8,5.2c-3.6,3-7,6.3-9.7,10.2c-1.3,1.8-2.4,3.7-3.3,5.7c-0.1,0.2-0.8,1.9-1.2,3.1
					c-0.4,0.3-0.9,1.3-1.1,1.7c-0.6,1-1.2,2-1.6,3.1c-0.3,0.8-0.3,1.8,0.6,2.2c0.9,0.4,2-0.1,2.1-1.1c0,0.2,0-2-0.1-2.9
					c0-0.9,0-1.8,0-2.7c0.5-1.2,1.2-2.8,1.3-3.1c0.9-1.9,1.9-3.6,3.1-5.3c2.6-3.7,5.9-7,9.4-9.9c2.7-2.2,5.4-4.3,8.2-6.3
					c-0.8,0.8-1.6,1.6-2.4,2.4c-3.1,3.2-5.9,6.6-8.4,10.3c-2.7,4-5.1,8.3-6.1,13c-0.5,2.2-0.7,4.5-0.5,6.7c0,0.2,0.8,4.7,0.9,5.4
					c0.2,1.4,0.7,2.7,1.3,3.9c0.5,0.9,1.2,1.8,2.4,1.4c1.2-0.4,1.8-2.1,0.8-2.9c0.3,0.2-1.8-1.4-2.6-2.2c-2-2-2.6-4.9-2.6-5.1
					c-0.3-2.1-0.1-4.2,0.3-6.3c0.9-4.4,3.1-8.6,5.5-12.3c2.4-3.6,5.1-6.9,8-10.1c1.4-1.5,2.9-3,4.4-4.4c0.2-0.2,0.4-0.4,0.6-0.5
					c-1.6,2.2-3.3,4.3-5,6.3c-2,2.4-3.6,5-5.1,7.7c-2.1,3.8-3.8,7.9-4.2,12.2c-0.4,4.6,0.9,9.5,4.3,12.8c3.2,3.3,9.1,5.8,13.2,3.7
					c4.1-2,7.4-7.3,5.3-11.6C760.7,189.5,760.1,188.8,759.4,188.3z M751.4,102.9c-0.1-0.2-0.1-0.4-0.2-0.6c-1.5,0.1-3.1,0.9-3.9,2.2
					c-0.6,0.9-0.9,2.4-0.3,3.4c0.5,1,1.4,0.8,2.1,0.2c0.3-0.3,0.6-0.4,0.3-0.8c-0.2-0.4-0.3,0-0.3,0.2c0,0.8-1.4,0.9-1.8,0.4
					c-0.7-0.9-0.3-2.5,0.3-3.3C748.2,103.7,749.7,102.8,751.4,102.9z M751.3,178.6C751.3,178.8,751.3,178.6,751.3,178.6L751.3,178.6
					z M762.5,139.1c0.5,1,1.4,3.5,1.5,3.8c0.6,2.1,0.7,4.4,0.3,6.6c-0.7,4.6-3.2,8.8-5.8,12.6c-2.5,3.6-5.5,7-7.8,10.8
					c-1,1.6-2,3.6-1.7,5.6c0.1,0.7,0.3,1.6,1.1,1.8c0.9,0.2,1.5-0.9,1.2-1.7c0-0.5-0.2-0.9-0.1-1.5c0.1-0.7,0.4-1.5,0.7-2.2
					c0.8-1.7,1.9-3.3,2.9-4.9c2.3-3.5,4.8-6.9,6.8-10.5c1.9-3.6,3.5-7.6,3.5-11.7c0-1.9-0.3-3.8-1-5.5
					C763.9,142,763,140,762.5,139.1z M719,150.3C718.6,149.6,719.2,150.7,719,150.3L719,150.3z M746.3,138c2.4-1,3.9-4.7,2.9-7.1
					c0,0,0-0.1,0-0.1c-0.9,0.8-2.1,1.6-3.1,1.3c-0.8-0.2-1.3-1.3-1.3-2.1c0.1-1.8,1.9-1.7,3.1-1.1c-0.1,0-0.3,0-0.4,0
					c-0.6-0.3-1.2-0.4-1.8-0.1c-1.3,0.6-0.7,2.6,0.7,2.6c0.9,0,1.8-0.4,2.6-1c-0.2-0.3-0.7-0.8-1-1.1c0.1,0,0.2,0,0.4,0
					c0.3,0.3,0.6,0.5,0.7,0.8c0,0,0,0.1,0,0.1c0.2-0.2,0.5-0.5,0.7-0.7c0.1,0,0.2,0,0.3,0.1c-0.1,0.1-0.6,0.7-0.9,0.9
					c0.9,2.1,0.1,4.7-1.3,6.3c-0.5,0.6-1.1,1.2-1.8,1.5c-0.1,1-0.6,2.1-0.8,3.1c-0.3,1.2-0.5,3.1,0.5,4.1c1,0.9,2.3,0.4,3.3-0.9
					c-0.3,0.6-1.4,1.6-2,1.8c-1.8,0.5-2.4-2-2.4-3.4c0.1-1.6,1.1-3,1.3-4.6c-0.2,0.1-0.5,0.2-0.7,0.2c-1.2,0.1-2.6-0.7-3-1.9
					c-0.3-0.8,0-2.1,1-2.3c1.3-0.3,2.5,0.9,2.8,2.1C746.3,137.1,746.4,137.5,746.3,138z M746.1,137.6c-0.1-1.1-0.8-2.5-2-2.7
					c-0.7-0.1-1.6,0.1-1.6,0.9c-0.1,1.6,2.2,2.7,3.5,2.2c0,0,0,0,0.1,0C746.2,137.9,746.1,137.7,746.1,137.6z M747.9,67.2
					c0,0.1,0.1,0.3,0.1,0.4c0.4-0.7,0.9-1.6,1.3-2.3c1.7-2.3,4-4.4,6.9-5c1.9-0.3,4,0.2,5.5,1.5c1.9,1.7,1.9,4.3,0.5,6.3
					c-1.7,2.4-5.1,2.9-7.6,1.2c-2.6-1.8-1.4-6.1,1.5-6.6c-3,0.1-4,3.5-2.8,6c1.5,3.1,6,2.7,8.2,0.6c1.7-1.5,2.5-4.1,1.6-6.2
					c-0.7-1.5-2.3-2.9-3.8-3.4C754.3,58.3,750.2,63,747.9,67.2z M753.5,44.8c3.6,1.6,3,6.1,0,7.9c-2.6,1.6-6.2,0-4.8-2.8
					c0,0,0,0,0,0c0,0,0,0,0-0.1c0-0.1,0.1-0.1,0.1-0.2c0.7-1.2,1.7-3,3.4-2.2c1.9,0.8,0.4,2.8-0.2,3.9c0,0,0-0.1,0.1-0.1
					c0,0.1-0.1,0.1-0.1,0.1c0.9-1.9-1.2-2.8-2.6-2.1c-0.2,1.2,0.5,2.2,1.8,2.7c1.7,0.6,2.5-0.6,3.7-1.2c0.1,0,0-1.4,0-1.6
					c-0.1-0.9-0.8-1.8-1.6-2.4c-1.4-1-3.6-1.1-5.3-0.6c-3.1,1-4.2,4.5-4,7.4c0.4,4.1,2,8.5,3.2,12.3c1.3,4,2.7,7.3,3.1,12
					c0.3,3.7-1,7.4-3.1,10.5c1.2,2.8,2.6,5.6,3.7,8.5c2.2,5.7,3.8,13.2,1.2,19.1c-0.7,1.5-1.5,3.1-2.6,4.4c0.1,0.2,0.3,0.4,0.4,0.7
					c1.2,2.3,2,5.6,0.6,8c-0.1-0.1-0.2-0.1-0.3-0.1c0.2-0.3,0.4-0.6,0.5-0.9c0.7-1.9,0.3-4-0.5-5.8c-0.3-0.6-0.6-1.1-0.9-1.7
					c-1.4,1.7-3.1,3.1-5.1,4c-2.4,1-5.8,1.5-7.7-0.7c-1.3-1.5-1.5-3.7-0.7-5.5c1.1-2.3,3.6-3.2,6-3c3.2,0.3,5.7,2.1,7.4,4.7
					c0.2-0.2,0.3-0.4,0.5-0.6c2.1-3,3.3-6.1,3.1-9.8c-0.4-7-4.1-13.4-6.3-19.9c-0.1-0.2-0.1-0.3-0.2-0.5c0,0,0,0,0,0
					c-2.2,2.8-6,5.6-9.6,3.5c-3.6-2-4.2-7-3-10.6c1.4-4.3,4.2-7.4,8.9-7.9c-6.7,0.9-9.1,9.1-8.4,12.1c0.6,2.7,2.9,5.3,5.8,5.5
					c1.7,0.1,4.1-1.1,6.1-3.4c-0.9-2.9-1.6-5.8-1.7-8.8c-0.1-3.7,0.7-7.8,2.6-11.4c0.1,0.2,0.1,0.2,0.2,0.3
					c-1.3,2.5-2.2,5.4-2.4,8.2c-0.3,3.9,0.7,7.4,2.1,10.8c1.5-2.2,2.7-5.1,2.7-8.8c0.1-4.3-1.5-7.8-2.7-11.6
					c-2.2-6.8-6.3-14-1.2-20.4C747.6,44.8,750.7,43.6,753.5,44.8z M749.2,120.6c-1.6-2.3-4.1-3.7-7.3-3.9c-2.7-0.1-5.8,0.4-6.2,3.4
					c-0.3,2.5,1.4,4,3.9,4.4C743.4,125.1,746.9,123.3,749.2,120.6z M752.1,51.2C752.1,51.2,752.1,51.1,752.1,51.2
					C752.1,51.1,752.1,51.2,752.1,51.2z M752.1,51.1c0-0.1,0.1-0.1,0.1-0.2C752.2,51,752.1,51,752.1,51.1z M752.4,50.5
					c0,0-0.1,0.1-0.1,0.2C752.3,50.6,752.4,50.6,752.4,50.5z M752.4,50.4C752.4,50.4,752.4,50.4,752.4,50.4
					C752.4,50.4,752.4,50.4,752.4,50.4z M717.6,72.8c3,2.9,7.8-4.8,7.8-4.8c-0.6,1.3,0,3.6,2.2,3.9c2.5,0.4,4.7-5.3,6.1-8.7
					c0.7-1.8,2.5-5.4,4-8.4c-2.1,5-4.2,12.5-1.2,14c0.3-2.2,1.6-1.8,1.6-1.8c1,4.6,6.9,3.7,6.8,0.4c-3.6,0.6-7.7-12-1-20.9
					c-9.1,6.3-21.9,2.8-21.4-0.8c-3.3,0.1-4,5.9,0.5,6.8c0,0,0.5,1.3-1.7,1.7c1.4,2.7,7.6,1.1,12.4-0.9c-3.1,1.6-6.2,3.2-6.8,3.4
					c-1.2,0.4-9.4,3.4-8.4,6.5c0.7,2.3,2.7,2.1,3.5,2C719.9,65.7,714.8,70.1,717.6,72.8z"/>
				<path class="st2" d="M661.5,553.1c0.1,0,0.2,0,0.4,0.1c0.3,0.7,0.4,1.6,0.5,2.3c0.3,4.2-3,8.4-6.4,10.6
					c-0.2-0.1-0.2-0.2-0.3-0.2c3.1-2,6.5-6,6.4-9.8C662.1,555.2,661.8,554,661.5,553.1z M661.4,552.7c0.1,0,0.3,0,0.4,0
					c-1.3-3.1-4.1-6-7.3-6c-3.4,0-6.3,2.6-7.3,5.7c0.4-0.1,0.8-0.1,1.1-0.1c0.8-3,3.3-5.7,6.6-5.3
					C657.6,547.4,660.2,549.9,661.4,552.7z M655.3,566.4c4.8,4.4,28.2,11.8,33.6-4.5c-0.3,0.1-0.4,0.1-0.6,0.2
					c-4.1,13.6-26.6,8.5-32.4,4.1c-0.2-0.1-7.6-6.3-7.9-11c0-0.7,0-1.4,0.1-2.1c0,0,0,0,0,0c-0.4,0-0.9,0.1-1.1,0.2
					c-0.1,0.5-0.2,1-0.1,1.6C647,559.7,653.3,565,655.3,566.4z M591.7,544.7c-0.2,0.3,1.5-1.8,2.3-2.5c2.1-1.9,5-2.4,5.2-2.4
					c2.1-0.2,4.2,0,6.3,0.5c4.4,1.1,8.5,3.3,12.1,5.9c3.5,2.5,6.8,5.3,9.8,8.4c1.5,1.5,2.9,3,4.2,4.5c0.2,0.2,0.3,0.4,0.5,0.6
					c-2.1-1.6-4.2-3.4-6.2-5.2c-2.3-2-4.8-3.8-7.5-5.3c-3.7-2.2-7.8-4.1-12.1-4.6c-4.6-0.6-9.5,0.6-13,3.9c-3.4,3.1-6,8.9-4.1,13.1
					c1.9,4.2,7,7.6,11.4,5.6c0.8-0.4,1.6-1,2.1-1.7c0.1-0.2,0.3-0.5,0.2-0.8c-0.1-0.2-0.8-0.5-0.9-0.3c-1.1,1.3-3.4,1.8-5.4,1.2
					c-1.9-0.6-3.5-2.6-3.8-4.6c-0.3-2.3,1.1-4.7,3.3-5.6c0.7-0.3,1.5-0.1,2.2-0.1c0.9,0,1.8,0,2.7-0.4c0.9-0.4,1.9-1.2,2.1-2.2
					c0.2-0.7,0.2-1.7,1.1-1.8c-0.9,1.6,0.4,6.2,4.8,5c0.5-0.1,0.4-0.6,0.3-1.1c-0.2-1.4,1.6-4.9,8-1.2c3.7,2.1,7.4,4.4,10.6,7.1
					c1.5,1.3,3,2.6,4.7,3.7c5.6,3.7,12.3,4.3,18.7,2.8c0.9-0.2,2.6-0.5,3.6-0.9c-0.2-0.1-0.2-0.2-0.3-0.3c-2.2,0.7-4.2,0.7-5.1,0.7
					c-1.5,0-3-0.2-4.4-0.5c-2.6-0.6-5-1.6-7.3-2.8c0-0.1-0.6-1.7-0.7-2.4c-0.9-5.7,0.1-7.6,2.9-9.8c1.7-1.1,0.7-1.8-0.5-0.9
					c-2.2,1.8-3.5,3.9-3.4,6.7c0,1.5,0.4,2.9,0.8,4.3c0.2,0.6,0.5,1.3,0.8,2c-0.4-0.3-0.6-0.6-0.8-0.9c-0.3-0.8-0.6-1.5-0.7-1.6
					c-0.8-2.2-1.1-4.6-0.7-6.8c0.3-2.2,0.9-5.4,5.4-7.6c1.6-0.8,0.6-1.6,0-1.2c-3.8,1.7-5.8,5.3-6,9.4c-0.1,2.3,0.6,4.8,1.6,7.3
					c-1.3-1.6-1.7-2.9-1.9-3.3c-0.9-2.8-1-5.9-0.2-8.8c0.8-2.8,2.1-6.6,7.8-9.2c1.7-0.8,0.9-2.2-0.3-1.5c-4.4,2.4-7.5,6.5-8.4,11.5
					c-0.4,2.3-0.2,4.7,0.4,7c-0.2-0.4-0.3-0.9-0.5-1.4c-1-3.4-1-7,0.2-10.4c1.1-3.3,3.3-6.3,6.2-8.3c1.4-1,6.3-3.6,11.4-2
					c0.7,0.2,1.6,0.8,2.2,0.2c0.7-0.8-0.9-1.8-4-1.6c-4.9,0.2-7.8,1.9-9.2,2.8c-3,1.9-5.3,4.9-6.6,8.2c-1.3,3.2-1.5,6.8-0.7,10.2
					c0.2,0.7,0.4,1.4,0.7,2.1c-0.1-0.1-0.1-0.2-0.1-0.2c-1.1-2.8-2.2-6.2-2-9.2c0.2-3,0.6-5.4,2.1-7.9c2.8-4.5,5.9-6.3,7.9-7.6
					c0.7-0.5,0.5-1.6-1.4-0.4c0.4-0.3,0.1-0.1,0,0c-4.3,2.7-6,6.5-6.7,7.7c-1.4,2.4-2.1,5.2-2.1,8c0,2.9,0.7,5.8,1.7,8.6
					c0.3,0.8,0.6,1.6,1,2.4c-0.2-0.3-0.4-0.7-0.6-1c-0.1-0.2-0.2-0.4-0.3-0.6c-1.5-3.4-2.4-7.1-2.5-10.9c-0.1-3.6,0.6-7.2,2.3-10.5
					c0.8-1.6,4.9-6.5,9-8.3c0.6-0.3,1.4-0.6,1.6-1.3c0.2-0.9-1.3-0.5-1.6-0.3c-4.4,2.6-7.3,6.6-8.7,9.3c-1.8,3.2-2.6,6.8-2.7,10.4
					c0,3.3,0.6,6.7,1.7,9.8c-0.1-0.2-0.2-0.4-0.3-0.6c-1.4-3.2-2.1-6.7-2.1-10.2c0-2.6,1.4-16.8,12.3-22.3c2.1-1.1,4.7-0.8,6.8,0.4
					c2.1,1.1,3.7,3.5,2.8,5.9c-0.8,2-3.9,3.7-5.3,1.3c-0.4-0.7-0.4-1.6,0.3-2.1c0.4-0.3,1.1-0.3,1.4,0.2c0.3,0.5-0.3,0.8-0.3,1
					c0.1,0.2,0.6-0.5,0.6-0.7c-0.1-0.5-0.6-0.9-1.1-0.9c-1.1,0-1.9,1.2-1.7,2.2c0.5,2.6,3.5,2.8,5.3,1.5c1.5-1.1,2.2-2.9,2-4.7
					c0.6,1.3,1,2.7,1.5,4c1.3,3.8,3.7,6.3,6.5,7.5c3.4,1.4,6.8,0.2,8.5-2.7c1.5-2.5,1.3-6.4-0.9-8.6c-1.1-1.1-2.9-1.8-4.4-1.3
					c-1.6,0.5-2.9,2.3-2.4,4c0.5,1.5,3,2.5,3.7,0.6c0.3-0.7-0.1-1.6-0.9-1.6c-0.4,0-0.8,0.3-0.7,0.7c0,0.4,0.7,0.7,0.8,0.2
					c-0.1,0.6-1.2,0-0.5-0.6c0.5-0.5,1.2,0,1.4,0.5c0.2,0.6-0.3,1.3-0.8,1.6c-0.6,0.3-1.4,0-1.9-0.4c-1.1-1-0.8-2.7,0.1-3.7
					c1-1,2.4-1.3,3.7-0.8c2.8,0.9,4,4,3,6.7c-1,2.7-3.7,4.6-6.6,4.4c-3.5-0.2-5.8-3.1-7.4-6c-0.8-1.5-1.5-3.1-2.3-4.6
					c-0.4-0.7-0.8-1.7-1.5-2.4c-1.3-1.6-3.3-2.6-5.3-2.8c-5.3-0.7-10.3,3.8-13,7.9c-1.2,1.9-2.2,4-2.8,6.1c0-0.4,0-0.9,0-1.3
					c0-4.4-1.8-9.6-6.4-11.2c-3.9-1.3-9.1,0.2-11.1,4c-2,3.7,0,8.9,4,10.2c1.8,0.6,3.7,0.3,5.2-0.9c1.4-1.3,1.9-3.4,0.7-4.9
					c-0.6-0.7-1.5-1.2-2.5-1c-1.1,0.2-2,1.2-1.7,2.3c0.2,0.9,1.2,1.5,2.1,1c1-0.7-0.1-1.9-0.7-1.1c-0.5-0.4,0.2-0.9,0.6-0.9
					c0.5-0.1,1,0.2,1.3,0.6c0.6,0.9,0.4,2-0.3,2.8c-1.5,1.6-4.1,1.4-5.7,0.2c-1.6-1.3-2.6-3.5-2.4-5.5c0.2-2.3,1.8-4.1,3.8-5
					c2.2-1,4.9-1.2,7.1-0.2c2.1,0.9,3.5,3.1,4.2,5.2c1.3,3.9,0.3,8.3,0,12.3c-0.3,3.9-0.1,7.9,1.1,11.6c0.4,1.2,0.9,2.4,1.5,3.6
					c-1.6-2.4-3.3-4.7-5-7c-2.9-3.7-6.1-7.2-9.8-10c-1.7-1.3-3.6-2.5-5.6-3.5c-0.2-0.1-1.9-0.8-3.1-1.3c-0.3-0.5-1.3-0.9-1.7-1.2
					c-1-0.6-2-1.2-3.1-1.7c-0.8-0.3-1.8-0.3-2.2,0.6c-0.4,0.9,0.1,2,1,2.2c-0.2,0,2,0,2.9,0c0.9,0,1.8,0.1,2.7,0.1
					c1.1,0.5,2.8,1.3,3,1.4c1.8,0.9,3.6,2,5.2,3.3c3.6,2.7,6.8,6.1,9.6,9.7c2.1,2.7,4.1,5.6,6,8.4c-0.8-0.8-1.5-1.7-2.3-2.5
					c-3.1-3.2-6.4-6.2-10-8.8c-3.9-2.8-8.1-5.3-12.8-6.6c-2.2-0.6-4.5-0.9-6.7-0.7c-0.2,0-4.7,0.6-5.4,0.7c-1.4,0.2-2.7,0.6-4,1.2
					c-0.9,0.4-1.8,1.2-1.5,2.4C589.2,545,590.9,545.7,591.7,544.7z M688.5,560.3c0.2,0,0.4-0.1,0.6-0.2c-0.1-1.5-0.8-3.1-2-4
					c-0.9-0.6-2.3-0.9-3.3-0.5c-1,0.5-0.8,1.4-0.3,2.1c0.3,0.3,0.4,0.6,0.8,0.4c0.4-0.2,0-0.3-0.2-0.3c-0.8,0-0.8-1.4-0.3-1.8
					c1-0.6,2.5-0.2,3.3,0.4C687.7,557.1,688.6,558.6,688.5,560.3z M612.8,557.7C612.6,557.8,612.8,557.7,612.8,557.7L612.8,557.7z
					 M611.1,556.5c-0.3,0.9,0.9,1.6,1.6,1.3c0.5,0,0.9-0.2,1.5-0.1c0.7,0.1,1.5,0.4,2.1,0.8c1.7,0.8,3.3,2,4.8,3.1
					c3.4,2.4,6.7,5,10.3,7.1c3.5,2.1,7.5,3.7,11.6,3.9c1.9,0.1,3.8-0.2,5.6-0.8c0.3-0.1,2.3-0.9,3.2-1.5c-1,0.5-3.5,1.3-3.8,1.4
					c-2.2,0.5-4.4,0.5-6.6,0.1c-4.6-0.9-8.7-3.5-12.4-6.2c-3.6-2.7-6.8-5.8-10.6-8.2c-1.6-1-3.5-2.1-5.5-1.9
					C612.3,555.5,611.4,555.7,611.1,556.5z M642.1,526.4C642.8,526,641.8,526.6,642.1,526.4L642.1,526.4z M675.2,560.7
					c-1.5-0.7-3-1.6-4.3-2.7c-0.2,0.1-0.4,0.3-0.7,0.4c-2.4,1.2-5.7,1.8-8,0.3c0.1-0.1,0.1-0.2,0.1-0.3c0.3,0.2,0.6,0.4,0.9,0.5
					c1.9,0.8,4,0.5,5.8-0.3c0.6-0.2,1.2-0.5,1.7-0.9c-1.7-1.4-3-3.2-3.8-5.2c-1-2.4-1.3-5.8,1-7.6c1.5-1.2,3.8-1.4,5.5-0.5
					c2.3,1.2,3.1,3.7,2.8,6.1c-0.4,3.2-2.3,5.7-4.9,7.3c0.2,0.2,0.4,0.3,0.6,0.5c2.9,2.2,6,3.5,9.7,3.4c7-0.2,13.5-3.6,20.1-5.6
					c0.2-0.1,0.3-0.1,0.5-0.2c0,0,0,0,0,0c-2.7-2.3-5.4-6.2-3.2-9.8c2.1-3.5,7.1-3.9,10.7-2.6c4.3,1.6,7.3,4.4,7.6,9.2
					c-0.7-6.8-8.8-9.4-11.8-8.8c-2.7,0.5-5.4,2.7-5.7,5.6c-0.1,1.7,1,4.1,3.3,6.2c2.9-0.8,5.8-1.4,8.9-1.5c3.7,0,7.8,1,11.3,3
					c-0.2,0.1-0.3,0.1-0.3,0.1c-2.5-1.3-5.4-2.4-8.1-2.6c-3.9-0.4-7.4,0.5-10.8,1.7c2.1,1.6,5,2.8,8.7,3c4.3,0.2,7.9-1.3,11.6-2.4
					c6.8-2,14.2-5.8,20.4-0.5c2.2,1.9,3.3,5,2,7.8c-1.7,3.5-6.2,2.8-7.9-0.2c-1.5-2.6,0.2-6.2,3-4.7c0,0,0,0,0,0c0,0,0,0,0.1,0
					c0.1,0,0.1,0.1,0.2,0.1c1.2,0.7,2.9,1.8,2.1,3.4c-0.9,1.8-2.8,0.3-3.9-0.3c0,0,0.1,0.1,0.1,0.1c-0.1,0-0.1-0.1-0.1-0.1
					c1.8,1,2.8-1.1,2.2-2.5c-1.2-0.2-2.2,0.5-2.7,1.7c-0.7,1.6,0.5,2.5,1.1,3.8c0,0.1,1.4,0.1,1.6,0.1c0.9-0.1,1.9-0.8,2.4-1.5
					c1-1.4,1.2-3.6,0.7-5.2c-0.9-3.1-4.3-4.4-7.3-4.2c-4.1,0.2-8.5,1.7-12.4,2.8c-4,1.1-7.4,2.4-12.1,2.7c-3.8,0.2-7.3-1.2-10.4-3.5
					c-2.9,1.1-5.7,2.4-8.7,3.4C688.6,562.1,681,563.4,675.2,560.7z M675,550.4c0.2-2.7-0.3-5.8-3.2-6.3c-2.5-0.4-4.1,1.3-4.6,3.7
					c-0.7,3.7,1,7.3,3.6,9.7C673.3,556,674.7,553.6,675,550.4z M740.8,563C740.9,563,740.9,563.1,740.8,563
					C740.9,563.1,740.9,563,740.8,563z M740.1,562.6c0.1,0.1,0.2,0.1,0.3,0.2C740.3,562.7,740.2,562.7,740.1,562.6z M740.6,562.9
					c0.1,0,0.1,0.1,0.2,0.1C740.7,563,740.7,562.9,740.6,562.9z M662.5,556c0-0.1,0-0.3,0-0.4c0.3-0.6,0.4-1.2,0.2-1.8
					c-0.6-1.3-2.5-0.8-2.6,0.6c0,0.9,0.3,1.9,0.9,2.7c0.3-0.2,0.8-0.7,1.1-1c0,0.1,0,0.2,0,0.4c-0.3,0.3-0.5,0.6-0.9,0.7
					c0,0-0.1,0-0.1,0c0.2,0.2,0.5,0.6,0.7,0.8c0,0.1,0,0.2-0.1,0.3c-0.1-0.1-0.7-0.7-0.9-0.9c-2.1,0.8-4.7,0-6.3-1.5
					c-0.5-0.5-1.1-1.1-1.4-1.8c-1-0.2-2-0.6-3-0.9c-1.2-0.4-3.1-0.6-4.1,0.4c-1,0.9-0.5,2.3,0.8,3.3c-0.6-0.4-1.6-1.4-1.7-2.1
					c-0.4-1.9,2.1-2.4,3.5-2.3c1.6,0.1,3,1.2,4.5,1.4c-0.1-0.2-0.1-0.5-0.1-0.7c0-1.2,0.8-2.6,2-2.9c0.8-0.2,2.1,0.1,2.3,1
					c0.3,1.3-1,2.5-2.2,2.8c-0.4,0.1-0.9,0.1-1.3,0.1c1,2.4,4.5,4.1,7,3.1c0,0,0.1,0,0.1,0c-0.8-0.9-1.5-2.1-1.2-3.2
					c0.2-0.8,1.3-1.3,2.1-1.2C663.4,553,663.2,554.8,662.5,556z M653.9,553.9c1.1-0.1,2.5-0.7,2.8-1.9c0.2-0.7-0.1-1.6-0.9-1.6
					c-1.6-0.1-2.8,2.1-2.3,3.5c0,0,0,0,0,0.1C653.7,554,653.8,554,653.9,553.9z M721.6,571.5c1.5,1.7,4,2.7,6.1,1.8
					c1.5-0.6,3-2.2,3.5-3.7c1.7-4.9-2.9-9.1-7-11.6c-0.1,0-0.3,0.1-0.4,0.1c0.7,0.4,1.6,0.9,2.2,1.4c2.3,1.7,4.3,4.1,4.7,7.1
					c0.3,1.9-0.3,4-1.7,5.4c-1.8,1.9-4.3,1.8-6.3,0.3c-2.4-1.8-2.8-5.2-0.9-7.6c1.9-2.5,6.2-1.2,6.5,1.7c0-3-3.4-4.1-5.9-3
					C719.3,564.7,719.7,569.2,721.6,571.5z M758.2,464.8c-0.1-0.2-0.2-0.2-0.2-0.3c-2.1,3.1-6.2,6.3-10,6.1c-0.9,0-2-0.3-2.9-0.7
					c0,0.1,0,0.2,0.1,0.4c0.7,0.3,1.5,0.5,2.3,0.6C751.6,471.3,755.9,468.2,758.2,464.8z M744.7,470.1c0-0.1,0-0.3,0-0.4
					c-2.7-1.3-5.2-3.9-5.5-6.8c-0.3-3.3,2.4-5.7,5.5-6.4c0-0.3,0-0.7,0.1-1.1c-3.1,0.9-5.8,3.7-5.9,7.1
					C738.9,465.8,741.7,468.8,744.7,470.1z M758.2,464.7c4.3,6,8.7,28.6-5.1,32.3c0,0.2-0.1,0.3-0.2,0.6c16.5-4.8,9.9-28.4,5.6-33.4
					c-1.4-2-6.4-8.5-11.3-8.9c-0.5,0-1,0-1.6,0.1c-0.1,0.2-0.2,0.7-0.2,1.1c0,0,0,0,0,0c0.7-0.1,1.4-0.1,2.1-0.1
					C752.2,456.9,758.1,464.5,758.2,464.7z M761.1,409.7c2.1-4.4-1.1-9.6-5.3-11.6c-4.1-2-10,0.5-13.2,3.7
					c-3.3,3.4-4.7,8.2-4.3,12.8c0.4,4.3,2.1,8.5,4.2,12.2c1.5,2.7,3.1,5.3,5.1,7.7c1.7,2.1,3.4,4.1,5,6.3c-0.2-0.2-0.4-0.4-0.6-0.5
					c-1.5-1.4-3-2.9-4.4-4.4c-2.9-3.1-5.7-6.5-8-10.1c-2.5-3.8-4.6-7.9-5.5-12.3c-0.4-2.1-0.6-4.2-0.3-6.3c0-0.2,0.6-3.1,2.6-5.1
					c0.8-0.8,2.8-2.4,2.6-2.2c1-0.8,0.3-2.5-0.8-2.9c-1.2-0.4-1.9,0.5-2.4,1.4c-0.6,1.2-1.1,2.6-1.3,3.9c-0.1,0.7-0.9,5.2-0.9,5.4
					c-0.3,2.3,0,4.5,0.5,6.7c1.1,4.7,3.4,9,6.1,13c2.5,3.7,5.4,7.1,8.4,10.3c0.8,0.8,1.6,1.6,2.4,2.4c-2.8-2-5.6-4.1-8.2-6.3
					c-3.5-2.9-6.8-6.1-9.4-9.9c-1.2-1.7-2.2-3.5-3.1-5.3c-0.1-0.2-0.8-1.9-1.3-3.1c0-0.9-0.1-1.8,0-2.7c0-0.9,0-3.1,0.1-2.9
					c-0.2-0.9-1.3-1.5-2.1-1.1c-0.9,0.4-0.9,1.4-0.6,2.2c0.4,1.1,1,2.1,1.6,3.1c0.3,0.4,0.7,1.4,1.1,1.7c0.5,1.2,1.1,2.9,1.2,3.1
					c0.9,2,2,3.9,3.3,5.7c2.7,3.8,6.1,7.2,9.7,10.2c2.2,1.8,4.5,3.5,6.8,5.2c-1.1-0.6-2.3-1.2-3.5-1.6c-3.7-1.4-7.6-1.7-11.6-1.5
					c-4,0.2-8.4,1.1-12.3-0.4c-2.1-0.8-4.2-2.3-5-4.4c-0.9-2.2-0.6-4.9,0.4-7c1-2,2.9-3.5,5.1-3.6c2.1-0.1,4.2,0.9,5.4,2.6
					c1.2,1.7,1.3,4.3-0.3,5.7c-0.8,0.7-1.9,0.8-2.8,0.2c-0.4-0.3-0.7-0.8-0.6-1.3c0.1-0.3,0.6-1,0.9-0.5c-0.8,0.6,0.4,1.7,1.1,0.7
					c0.6-0.8,0-1.8-0.9-2.1c-1.1-0.3-2.1,0.6-2.4,1.6c-0.2,1,0.2,1.9,0.9,2.5c1.5,1.3,3.7,0.9,5-0.5c1.3-1.4,1.6-3.4,1.1-5.1
					c-1.2-4.1-6.3-6.2-10.1-4.4c-3.9,1.9-5.5,7-4.3,11c1.4,4.6,6.5,6.6,11,6.7c0.4,0,0.9,0,1.3,0c-2.2,0.6-4.3,1.5-6.2,2.6
					c-4.2,2.5-8.8,7.4-8.3,12.7c0.2,1.7,0.8,3.4,1.9,4.7c0.5,0.7,1.2,1.3,1.7,1.8c1.2,1.2,2.5,2.3,3.7,3.5c2.3,2.3,4.4,5.4,3.6,8.8
					c-0.7,2.8-3.2,4.9-6.1,5c-2.9,0.1-5.4-1.9-5.5-4.9c0-1.4,0.6-2.7,1.9-3.3c1.3-0.6,3-0.4,3.6,1c0.3,0.6,0.3,1.4-0.2,2
					c-0.4,0.5-1.2,0.7-1.7,0.3c-0.5-0.3-0.7-1.2-0.1-1.5c0.8-0.4,1,0.8,0.5,0.7c0.5,0.1,0.4-0.6,0.1-0.8c-0.4-0.2-0.8,0.1-0.9,0.5
					c-0.3,0.8,0.5,1.4,1.2,1.4c2-0.1,1.8-2.8,0.5-3.7c-1.4-1-3.6-0.3-4.5,1.1c-0.9,1.3-0.8,3.2-0.1,4.6c1.4,2.7,5.1,4,7.9,3.3
					c3.3-0.8,5.5-3.7,5.1-7.3c-0.3-3.1-2-6-5.2-8.4c-1.2-0.9-2.5-1.7-3.6-2.7c0.1,0,0.1,0.1,0.2,0.1c2.1,1,4.7,0.5,6.1-1.4
					c1.3-1.8,1.2-4.7-1.4-5.3c-1-0.2-2.3,0.5-2.3,1.6c0,0.5,0.4,1,0.9,1.1c0.2,0,1-0.5,0.8-0.6c-0.2-0.1-0.4,0.6-1,0.2
					c-0.5-0.3-0.5-1-0.1-1.4c0.5-0.7,1.5-0.7,2.1-0.2c2.3,1.5,0.5,4.6-1.5,5.3c-2.4,0.9-4.8-0.8-5.9-3c-1.1-2.1-1.3-4.7-0.1-6.8
					c5.8-10.7,20.1-11.6,22.7-11.5c3.5,0.1,7,0.9,10.1,2.4c0.2,0.1,0.4,0.2,0.6,0.3c-3.1-1.2-6.4-2-9.8-2.1
					c-3.6-0.1-7.3,0.7-10.5,2.3c-2.7,1.4-6.8,4.1-9.5,8.4c-0.2,0.3-0.7,1.8,0.2,1.6c0.7-0.1,1-0.9,1.3-1.5c1.9-4,7.1-8,8.6-8.7
					c3.3-1.5,6.9-2.1,10.5-1.9c3.7,0.2,7.4,1.2,10.8,2.8c0.2,0.1,0.4,0.2,0.6,0.3c0.3,0.2,0.7,0.4,1,0.7c-0.8-0.4-1.6-0.7-2.4-1.1
					c-2.7-1.1-5.6-1.9-8.5-2c-2.8-0.1-5.6,0.6-8,1.9c-1.2,0.6-5.1,2.2-8,6.4c-0.1,0.1-0.3,0.4,0,0c-1.3,1.9-0.1,2.1,0.3,1.4
					c1.3-2,3.2-5,7.8-7.7c2.5-1.4,4.9-1.7,7.9-1.8c3-0.1,6.4,1.1,9.1,2.3c0,0,0.1,0.1,0.2,0.1c-0.7-0.3-1.4-0.5-2.1-0.8
					c-3.3-0.9-7-0.8-10.2,0.4c-3.3,1.2-6.4,3.4-8.4,6.3c-1,1.4-2.7,4.2-3.1,9.1c-0.2,3,0.7,4.7,1.5,4c0.6-0.5,0-1.5-0.2-2.2
					c-1.5-5.1,1.3-9.9,2.3-11.3c2.1-2.8,5.1-4.9,8.5-5.9c3.4-1.1,7-1,10.4,0.2c0.5,0.2,0.9,0.3,1.4,0.5c-2.2-0.7-4.7-1-7-0.7
					c-5,0.7-9.2,3.6-11.8,8c-0.8,1.1,0.7,2,1.5,0.3c2.8-5.6,6.6-6.8,9.4-7.5c2.9-0.7,6-0.5,8.8,0.5c0.4,0.1,1.7,0.6,3.2,2
					c-2.4-1.1-4.9-1.8-7.2-1.8c-4.1,0-7.7,2-9.6,5.7c-0.4,0.6,0.4,1.6,1.2,0.1c2.4-4.4,5.6-4.9,7.8-5.2c2.3-0.3,4.7,0.1,6.8,1
					c0.1,0,0.8,0.3,1.6,0.7c0.3,0.2,0.6,0.4,0.9,0.8c-0.7-0.3-1.4-0.6-2-0.8c-1.4-0.5-2.8-0.8-4.2-0.9c-2.8-0.2-5,1-6.9,3.2
					c-1,1.1-0.3,2.2,0.9,0.5c2.3-2.8,4.2-3.7,9.9-2.6c0.7,0.1,2.3,0.7,2.4,0.8c1.2,2.3,2.1,4.8,2.6,7.4c0.3,1.5,0.4,3,0.4,4.4
					c0,0.9-0.1,2.9-0.9,5.1c0.1,0.1,0.2,0.1,0.3,0.3c0.3-1,0.7-2.6,1-3.5c1.7-6.4,1.3-13.1-2.2-18.8c-1-1.7-2.3-3.2-3.6-4.8
					c-2.6-3.3-4.8-7.1-6.8-10.8c-3.5-6.5,0.1-8.2,1.4-8c0.4,0.1,0.9,0.2,1.1-0.3c1.4-4.3-3.2-5.8-4.8-4.9c0.2-0.9,1.1-0.9,1.8-1.1
					c1-0.2,1.8-1.1,2.2-2.1c0.4-0.8,0.4-1.8,0.5-2.7c0-0.7-0.1-1.5,0.2-2.2c1-2.1,3.4-3.5,5.7-3.1c2,0.4,4,2,4.5,3.9
					c0.5,2,0,4.3-1.4,5.4c-0.3,0.1,0.1,0.8,0.2,0.9c0.3,0.1,0.6,0,0.8-0.2C760.1,411.2,760.7,410.5,761.1,409.7z M747.7,495.5
					c-0.6-0.9-1-2.4-0.3-3.3c0.4-0.5,1.8-0.4,1.8,0.4c0,0.2,0.1,0.6,0.3,0.2c0.2-0.4,0-0.5-0.3-0.8c-0.7-0.6-1.6-0.7-2.1,0.2
					c-0.5,1-0.2,2.4,0.3,3.4c0.8,1.3,2.4,2.1,3.9,2.2c0.1-0.2,0.2-0.4,0.2-0.6C749.7,497.2,748.2,496.3,747.7,495.5z M751.3,421.4
					C751.3,421.4,751.3,421.2,751.3,421.4L751.3,421.4z M764,457.7c0.7-1.8,1-3.7,1-5.5c0-4.2-1.6-8.1-3.5-11.7
					c-2-3.7-4.4-7.1-6.8-10.5c-1.1-1.6-2.1-3.2-2.9-4.9c-0.3-0.7-0.6-1.4-0.7-2.2c-0.1-0.6,0.1-1,0.1-1.5c0.3-0.7-0.4-1.9-1.2-1.7
					c-0.8,0.2-1,1.1-1.1,1.8c-0.3,2,0.7,3.9,1.7,5.6c2.3,3.8,5.3,7.2,7.8,10.8c2.6,3.8,5.1,8,5.8,12.6c0.3,2.2,0.3,4.4-0.3,6.6
					c-0.1,0.3-1,2.8-1.5,3.8C763,460,763.9,458,764,457.7z M719,449.7C719.2,449.3,718.6,450.4,719,449.7L719,449.7z M746.2,463.3
					c-0.3,1.2-1.5,2.4-2.8,2.1c-0.9-0.2-1.2-1.5-1-2.3c0.4-1.2,1.8-1.9,3-1.9c0.2,0,0.5,0.1,0.7,0.2c-0.2-1.5-1.2-3-1.3-4.6
					c0-1.4,0.5-3.9,2.4-3.4c0.7,0.2,1.7,1.2,2,1.8c-1-1.3-2.3-1.8-3.3-0.9c-1,1-0.9,2.9-0.5,4.1c0.3,1,0.7,2,0.8,3.1
					c0.7,0.3,1.3,1,1.8,1.5c1.4,1.6,2.1,4.3,1.3,6.3c0.2,0.2,0.8,0.9,0.9,0.9c-0.1,0-0.2,0.1-0.3,0.1c-0.2-0.2-0.5-0.5-0.7-0.7
					c0,0,0,0.1,0,0.1c-0.2,0.3-0.4,0.6-0.7,0.8c-0.2,0-0.3,0-0.4,0c0.3-0.3,0.8-0.8,1-1.1c-0.8-0.6-1.7-1-2.6-1
					c-1.4,0-1.9,1.9-0.7,2.6c0.6,0.3,1.2,0.2,1.8-0.1c0.2,0,0.3,0.1,0.4,0c-1.3,0.7-3,0.8-3.1-1.1c-0.1-0.9,0.4-1.9,1.3-2.1
					c1-0.3,2.2,0.5,3.1,1.3c0,0,0-0.1,0-0.1c1.1-2.4-0.5-6-2.9-7.1C746.4,462.5,746.3,462.9,746.2,463.3z M746.1,462
					C746.1,462,746.1,462,746.1,462c-1.4-0.5-3.7,0.6-3.6,2.2c0,0.8,1,1.1,1.6,0.9c1.2-0.2,1.9-1.6,2-2.7
					C746.1,462.3,746.2,462.1,746.1,462z M759.3,540.2c1.6-0.5,3.2-1.9,3.8-3.4c0.9-2.1,0.1-4.6-1.6-6.2c-2.2-2-6.7-2.5-8.2,0.6
					c-1.2,2.4-0.2,5.8,2.8,6c-2.9-0.5-4.1-4.8-1.5-6.6c2.5-1.7,5.9-1.2,7.6,1.2c1.4,2.1,1.4,4.6-0.5,6.3c-1.5,1.3-3.5,1.9-5.5,1.5
					c-2.9-0.5-5.2-2.6-6.9-5c-0.5-0.6-0.9-1.6-1.3-2.3c0,0.1-0.1,0.3-0.1,0.4C750.2,537,754.3,541.7,759.3,540.2z M745.8,553
					c-5.1-6.5-1-13.7,1.2-20.4c1.2-3.7,2.8-7.2,2.7-11.6c0-3.6-1.2-6.6-2.7-8.8c-1.4,3.4-2.3,6.9-2.1,10.8c0.2,2.8,1.1,5.7,2.4,8.2
					c0,0.1-0.1,0.2-0.2,0.3c-1.9-3.6-2.8-7.7-2.6-11.4c0.1-3,0.8-5.9,1.7-8.8c-2-2.3-4.4-3.5-6.1-3.4c-2.9,0.2-5.2,2.8-5.8,5.5
					c-0.7,3,1.7,11.2,8.4,12.1c-4.7-0.4-7.5-3.6-8.9-7.9c-1.2-3.6-0.6-8.6,3-10.6c3.6-2,7.4,0.8,9.6,3.5c0,0,0,0,0,0
					c0.1-0.2,0.1-0.3,0.2-0.5c2.2-6.5,5.9-12.9,6.3-19.9c0.2-3.7-1-6.8-3.1-9.8c-0.2-0.2-0.3-0.4-0.5-0.6c-1.7,2.6-4.3,4.4-7.4,4.7
					c-2.4,0.2-4.9-0.7-6-3c-0.8-1.8-0.6-4,0.7-5.5c1.9-2.2,5.3-1.8,7.7-0.7c2,0.9,3.7,2.3,5.1,4c0.3-0.5,0.6-1.1,0.9-1.7
					c0.8-1.8,1.2-3.9,0.5-5.8c-0.1-0.3-0.3-0.6-0.5-0.9c0.1,0,0.1,0,0.3-0.1c1.4,2.4,0.7,5.7-0.6,8c-0.1,0.2-0.3,0.4-0.4,0.7
					c1.1,1.4,1.9,2.9,2.6,4.4c2.6,5.9,1,13.5-1.2,19.1c-1.1,2.9-2.5,5.7-3.7,8.5c2.2,3.1,3.5,6.7,3.1,10.5c-0.4,4.7-1.8,8-3.1,12
					c-1.2,3.9-2.8,8.3-3.2,12.3c-0.3,3,0.8,6.5,4,7.4c1.6,0.5,3.8,0.4,5.3-0.6c0.8-0.5,1.5-1.4,1.6-2.4c0-0.2,0.1-1.5,0-1.6
					c-1.3-0.7-2.1-1.8-3.7-1.2c-1.2,0.4-1.9,1.5-1.8,2.7c1.4,0.7,3.5-0.2,2.6-2.1c0,0,0,0,0.1,0.1c0,0,0-0.1-0.1-0.1
					c0.6,1.1,2,3.1,0.2,3.9c-1.7,0.7-2.7-1-3.4-2.2c0-0.1-0.1-0.1-0.1-0.2c0,0,0,0,0-0.1c0,0,0,0,0,0c-1.3-2.8,2.3-4.4,4.8-2.8
					c2.9,1.8,3.6,6.3,0,7.9C750.7,556.4,747.6,555.2,745.8,553z M739.6,475.5c-2.5,0.4-4.2,2-3.9,4.4c0.4,2.9,3.5,3.5,6.2,3.4
					c3.2-0.2,5.6-1.5,7.3-3.9C746.9,476.7,743.4,474.9,739.6,475.5z M752.1,548.9C752.1,548.9,752.1,548.8,752.1,548.9
					C752.1,548.8,752.1,548.9,752.1,548.9z M752.2,549.1c0-0.1-0.1-0.1-0.1-0.2C752.1,549,752.2,549,752.2,549.1z M752.3,549.3
					c0,0.1,0.1,0.1,0.1,0.2C752.4,549.4,752.3,549.4,752.3,549.3z M752.4,549.5C752.4,549.6,752.4,549.6,752.4,549.5
					C752.4,549.6,752.4,549.6,752.4,549.5z M721.9,535c-0.8-0.2-2.8-0.4-3.5,2c-1,3.1,7.2,6.1,8.4,6.5c0.6,0.2,3.7,1.8,6.8,3.4
					c-4.8-2-11-3.6-12.4-0.9c2.2,0.4,1.7,1.7,1.7,1.7c-4.6,0.9-3.9,6.8-0.5,6.8c-0.5-3.6,12.4-7.1,21.4-0.8c-6.7-9-2.6-21.5,1-20.9
					c0-3.3-5.8-4.2-6.8,0.4c0,0-1.3,0.4-1.6-1.8c-3,1.5-0.9,9,1.2,14c-1.5-3.1-3.2-6.7-4-8.4c-1.4-3.4-3.6-9.1-6.1-8.7
					c-2.2,0.3-2.8,2.6-2.2,3.9c0,0-4.8-7.6-7.8-4.8C714.8,529.9,719.9,534.3,721.9,535z"/>
				<path class="st2" d="M138.5,46.9c-0.1,0-0.2,0-0.4-0.1c-0.3-0.7-0.4-1.6-0.5-2.3c-0.3-4.2,3-8.4,6.4-10.6
					c0.2,0.1,0.2,0.2,0.3,0.2c-3.1,2-6.5,6-6.4,9.8C137.9,44.8,138.2,46,138.5,46.9z M138.6,47.3c-0.1,0-0.3,0-0.4,0
					c1.3,3.1,4.1,6,7.3,6c3.4,0,6.3-2.6,7.3-5.7c-0.4,0.1-0.8,0.1-1.1,0.1c-0.8,3-3.3,5.7-6.6,5.3C142.4,52.6,139.8,50.1,138.6,47.3
					z M144.7,33.6c-4.8-4.4-28.2-11.8-33.6,4.5c0.3-0.1,0.4-0.1,0.6-0.2c4.1-13.6,26.6-8.5,32.4-4.1c0.2,0.1,7.6,6.3,7.9,11
					c0,0.7,0,1.4-0.1,2.1c0,0,0,0,0,0c0.4,0,0.9-0.1,1.1-0.2c0.1-0.5,0.2-1,0.1-1.6C153,40.3,146.7,35,144.7,33.6z M208.3,55.3
					c0.2-0.3-1.5,1.8-2.3,2.5c-2.1,1.9-5,2.4-5.2,2.4c-2.1,0.2-4.2,0-6.3-0.5c-4.4-1.1-8.5-3.3-12.1-5.9c-3.5-2.5-6.8-5.3-9.8-8.4
					c-1.5-1.5-2.9-3-4.2-4.5c-0.2-0.2-0.3-0.4-0.5-0.6c2.1,1.6,4.2,3.4,6.2,5.2c2.3,2,4.8,3.8,7.5,5.3c3.7,2.2,7.8,4.1,12.1,4.6
					c4.6,0.6,9.5-0.6,13-3.9c3.4-3.1,6-8.9,4.1-13.1c-1.9-4.2-7-7.6-11.4-5.6c-0.8,0.4-1.6,1-2.1,1.7c-0.1,0.2-0.3,0.5-0.2,0.8
					c0.1,0.2,0.8,0.5,0.9,0.3c1.1-1.3,3.4-1.8,5.4-1.2c1.9,0.6,3.5,2.6,3.8,4.6c0.3,2.3-1.1,4.7-3.3,5.6c-0.7,0.3-1.5,0.1-2.2,0.1
					c-0.9,0-1.8,0-2.7,0.4c-0.9,0.4-1.9,1.2-2.1,2.2c-0.2,0.7-0.2,1.7-1.1,1.8c0.9-1.6-0.4-6.2-4.8-5c-0.5,0.1-0.4,0.6-0.3,1.1
					c0.2,1.4-1.6,4.9-8,1.2c-3.7-2.1-7.4-4.4-10.6-7.1c-1.5-1.3-3-2.6-4.7-3.7c-5.6-3.7-12.3-4.3-18.7-2.8c-0.9,0.2-2.6,0.5-3.6,0.9
					c0.2,0.1,0.2,0.2,0.3,0.3c2.2-0.7,4.2-0.7,5.1-0.7c1.5,0,3,0.2,4.4,0.5c2.6,0.6,5,1.6,7.3,2.8c0,0.1,0.6,1.7,0.7,2.4
					c0.9,5.7-0.1,7.6-2.9,9.8c-1.7,1.1-0.7,1.8,0.5,0.9c2.2-1.8,3.5-3.9,3.4-6.7c0-1.5-0.4-2.9-0.8-4.3c-0.2-0.6-0.5-1.3-0.8-2
					c0.4,0.3,0.6,0.6,0.8,0.9c0.3,0.8,0.6,1.5,0.7,1.6c0.8,2.2,1.1,4.6,0.7,6.8c-0.3,2.2-0.9,5.4-5.4,7.6c-1.6,0.8-0.6,1.6,0,1.2
					c3.8-1.7,5.8-5.3,6-9.4c0.1-2.3-0.6-4.8-1.6-7.3c1.3,1.6,1.7,2.9,1.9,3.3c0.9,2.8,1,5.9,0.2,8.8c-0.8,2.8-2.1,6.6-7.8,9.2
					c-1.7,0.8-0.9,2.2,0.3,1.5c4.4-2.4,7.5-6.5,8.4-11.5c0.4-2.3,0.2-4.7-0.4-7c0.2,0.4,0.3,0.9,0.5,1.4c1,3.4,1,7-0.2,10.4
					c-1.1,3.3-3.3,6.3-6.2,8.3c-1.4,1-6.3,3.6-11.4,2c-0.7-0.2-1.6-0.8-2.2-0.2c-0.7,0.8,0.9,1.8,4,1.6c4.9-0.2,7.8-1.9,9.2-2.8
					c3-1.9,5.3-4.9,6.6-8.2c1.3-3.2,1.5-6.8,0.7-10.2c-0.2-0.7-0.4-1.4-0.7-2.1c0.1,0.1,0.1,0.2,0.1,0.2c1.1,2.8,2.2,6.2,2,9.2
					c-0.2,3-0.6,5.4-2.1,7.9c-2.8,4.5-5.9,6.3-7.9,7.6c-0.7,0.5-0.5,1.6,1.4,0.4c-0.4,0.3-0.1,0.1,0,0c4.3-2.7,6-6.5,6.7-7.7
					c1.4-2.4,2.1-5.2,2.1-8c0-2.9-0.7-5.8-1.7-8.6c-0.3-0.8-0.6-1.6-1-2.4c0.2,0.3,0.4,0.7,0.6,1c0.1,0.2,0.2,0.4,0.3,0.6
					c1.5,3.4,2.4,7.1,2.5,10.9c0.1,3.6-0.6,7.2-2.3,10.5c-0.8,1.6-4.9,6.5-9,8.3c-0.6,0.3-1.4,0.6-1.6,1.3c-0.2,0.9,1.3,0.5,1.6,0.3
					c4.4-2.6,7.3-6.6,8.7-9.3c1.8-3.2,2.6-6.8,2.7-10.4c0-3.3-0.6-6.7-1.7-9.8c0.1,0.2,0.2,0.4,0.3,0.6c1.4,3.2,2.1,6.7,2.1,10.2
					c0,2.6-1.4,16.8-12.3,22.3c-2.1,1.1-4.7,0.8-6.8-0.4c-2.1-1.1-3.7-3.5-2.8-5.9c0.8-2,3.9-3.7,5.3-1.3c0.4,0.7,0.4,1.6-0.3,2.1
					c-0.4,0.3-1.1,0.3-1.4-0.2c-0.3-0.5,0.3-0.8,0.3-1c-0.1-0.2-0.6,0.5-0.6,0.7c0.1,0.5,0.6,0.9,1.1,0.9c1.1,0,1.9-1.2,1.7-2.2
					c-0.5-2.6-3.5-2.8-5.3-1.5c-1.5,1.1-2.2,2.9-2,4.7c-0.6-1.3-1-2.7-1.5-4c-1.3-3.8-3.7-6.3-6.5-7.5c-3.4-1.4-6.8-0.2-8.5,2.7
					c-1.5,2.5-1.3,6.4,0.9,8.6c1.1,1.1,2.9,1.8,4.4,1.3c1.6-0.5,2.9-2.3,2.4-4c-0.5-1.5-3-2.5-3.7-0.6c-0.3,0.7,0.1,1.6,0.9,1.6
					c0.4,0,0.8-0.3,0.7-0.7c0-0.4-0.7-0.7-0.8-0.2c0.1-0.6,1.2,0,0.5,0.6c-0.5,0.5-1.2,0-1.4-0.5c-0.2-0.6,0.3-1.3,0.8-1.6
					c0.6-0.3,1.4,0,1.9,0.4c1.1,1,0.8,2.7-0.1,3.7c-1,1-2.4,1.3-3.7,0.8c-2.8-0.9-4-4-3-6.7c1-2.7,3.7-4.6,6.6-4.4
					c3.5,0.2,5.8,3.1,7.4,6c0.8,1.5,1.5,3.1,2.3,4.6c0.4,0.7,0.8,1.7,1.5,2.4c1.3,1.6,3.3,2.6,5.3,2.8c5.3,0.7,10.3-3.8,13-7.9
					c1.2-1.9,2.2-4,2.8-6.1c0,0.4,0,0.9,0,1.3c0,4.4,1.8,9.6,6.4,11.2c3.9,1.3,9.1-0.2,11.1-4c2-3.7,0-8.9-4-10.2
					c-1.8-0.6-3.7-0.3-5.2,0.9c-1.4,1.3-1.9,3.4-0.7,4.9c0.6,0.7,1.5,1.2,2.5,1c1.1-0.2,2-1.2,1.7-2.3c-0.2-0.9-1.2-1.5-2.1-1
					c-1,0.7,0.1,1.9,0.7,1.1c0.5,0.4-0.2,0.9-0.6,0.9c-0.5,0.1-1-0.2-1.3-0.6c-0.6-0.9-0.4-2,0.3-2.8c1.5-1.6,4.1-1.4,5.7-0.2
					c1.6,1.3,2.6,3.4,2.4,5.5c-0.2,2.3-1.8,4.1-3.8,5c-2.2,1-4.9,1.2-7.1,0.2c-2.1-0.9-3.5-3.1-4.2-5.2c-1.3-3.9-0.3-8.3,0-12.3
					c0.3-3.9,0.1-7.9-1.1-11.6c-0.4-1.2-0.9-2.4-1.5-3.6c1.6,2.4,3.3,4.7,5,7c2.9,3.7,6.1,7.2,9.8,10c1.7,1.3,3.6,2.5,5.6,3.5
					c0.2,0.1,1.9,0.8,3.1,1.3c0.3,0.5,1.3,0.9,1.7,1.2c1,0.6,2,1.2,3.1,1.7c0.8,0.3,1.8,0.3,2.2-0.6c0.4-0.9-0.1-2-1-2.2
					c0.2,0-2,0-2.9,0c-0.9,0-1.8-0.1-2.7-0.1c-1.1-0.5-2.8-1.3-3-1.4c-1.8-0.9-3.6-2-5.2-3.3c-3.6-2.7-6.8-6.1-9.6-9.7
					c-2.1-2.7-4.1-5.6-6-8.4c0.8,0.8,1.5,1.7,2.3,2.5c3.1,3.2,6.4,6.2,10,8.8c3.9,2.8,8.1,5.3,12.8,6.6c2.2,0.6,4.5,0.9,6.7,0.7
					c0.2,0,4.7-0.6,5.4-0.7c1.4-0.2,2.7-0.6,4-1.2c0.9-0.4,1.8-1.2,1.5-2.4C210.8,55,209.1,54.3,208.3,55.3z M111.5,39.7
					c-0.2,0-0.4,0.1-0.6,0.2c0.1,1.5,0.8,3.1,2,4c0.9,0.6,2.3,0.9,3.3,0.5c1-0.5,0.8-1.4,0.3-2.1c-0.3-0.3-0.4-0.6-0.8-0.4
					c-0.4,0.2,0,0.3,0.2,0.3c0.8,0,0.8,1.4,0.3,1.8c-1,0.6-2.5,0.2-3.3-0.4C112.3,42.9,111.4,41.4,111.5,39.7z M187.2,42.3
					C187.4,42.2,187.2,42.3,187.2,42.3L187.2,42.3z M188.9,43.5c0.3-0.9-0.9-1.6-1.6-1.3c-0.5,0-0.9,0.2-1.5,0.1
					c-0.7-0.1-1.5-0.4-2.1-0.8c-1.7-0.8-3.3-2-4.8-3.1c-3.4-2.4-6.7-5-10.3-7.1c-3.5-2.1-7.5-3.7-11.6-3.9c-1.9-0.1-3.8,0.2-5.6,0.8
					c-0.3,0.1-2.3,0.9-3.2,1.5c1-0.5,3.5-1.3,3.8-1.4c2.2-0.5,4.4-0.5,6.6-0.1c4.6,0.9,8.7,3.5,12.4,6.2c3.6,2.7,6.8,5.8,10.6,8.2
					c1.6,1,3.5,2.1,5.5,1.9C187.7,44.5,188.6,44.3,188.9,43.5z M157.9,73.6C157.2,74,158.2,73.4,157.9,73.6L157.9,73.6z M124.8,39.3
					c1.5,0.7,3,1.6,4.3,2.7c0.2-0.1,0.4-0.3,0.7-0.4c2.4-1.2,5.7-1.8,8-0.3c-0.1,0.1-0.1,0.2-0.1,0.3c-0.3-0.2-0.6-0.4-0.9-0.5
					c-1.9-0.8-4-0.5-5.8,0.3c-0.6,0.2-1.2,0.5-1.7,0.9c1.7,1.4,3,3.2,3.8,5.2c1,2.4,1.3,5.8-1,7.6c-1.5,1.2-3.8,1.4-5.5,0.5
					c-2.3-1.2-3.1-3.7-2.8-6.1c0.4-3.2,2.3-5.7,4.9-7.3c-0.2-0.2-0.4-0.3-0.6-0.5c-2.9-2.2-6-3.5-9.7-3.4c-7,0.2-13.5,3.6-20.1,5.6
					c-0.2,0.1-0.3,0.1-0.5,0.2c0,0,0,0,0,0c2.7,2.3,5.4,6.2,3.2,9.8c-2.1,3.5-7.1,3.9-10.7,2.6c-4.3-1.6-7.3-4.4-7.6-9.2
					c0.7,6.8,8.8,9.4,11.8,8.8c2.7-0.5,5.4-2.7,5.7-5.6c0.1-1.7-1-4.1-3.3-6.2c-2.9,0.8-5.8,1.4-8.9,1.5c-3.7,0-7.8-1-11.3-3
					c0.2-0.1,0.3-0.1,0.3-0.2c2.5,1.3,5.4,2.4,8.1,2.6c3.9,0.4,7.4-0.5,10.8-1.7c-2.1-1.6-5-2.8-8.7-3c-4.3-0.2-7.9,1.3-11.6,2.4
					c-6.8,2-14.2,5.8-20.4,0.5c-2.2-1.9-3.3-5-2-7.8c1.7-3.5,6.2-2.8,7.9,0.2c1.5,2.6-0.2,6.2-3,4.7c0,0,0,0,0,0c0,0,0,0-0.1,0
					c-0.1,0-0.1-0.1-0.2-0.1c-1.2-0.7-2.9-1.8-2.1-3.4c0.9-1.8,2.8-0.3,3.9,0.3c0,0-0.1-0.1-0.1-0.1c0.1,0,0.1,0.1,0.1,0.1
					c-1.8-1-2.8,1.1-2.2,2.5c1.2,0.2,2.2-0.5,2.7-1.7c0.7-1.6-0.5-2.5-1.1-3.8c0-0.1-1.4-0.1-1.6-0.1c-0.9,0.1-1.9,0.8-2.4,1.5
					c-1,1.4-1.2,3.6-0.7,5.2c0.9,3.1,4.3,4.4,7.3,4.2c4.1-0.2,8.5-1.7,12.4-2.8c4-1.1,7.4-2.4,12.1-2.7c3.8-0.2,7.3,1.2,10.4,3.5
					c2.9-1.1,5.7-2.4,8.7-3.4C111.4,37.9,119,36.6,124.8,39.3z M125,49.6c-0.2,2.7,0.3,5.8,3.2,6.3c2.5,0.4,4.1-1.3,4.6-3.7
					c0.7-3.7-1-7.3-3.6-9.7C126.7,44,125.3,46.4,125,49.6z M59.2,37C59.1,37,59.1,36.9,59.2,37C59.1,36.9,59.1,37,59.2,37z
					 M59.9,37.4c-0.1-0.1-0.2-0.1-0.3-0.2C59.7,37.3,59.8,37.3,59.9,37.4z M59.4,37.1c-0.1,0-0.1-0.1-0.2-0.1
					C59.3,37,59.3,37.1,59.4,37.1z M137.5,44c0,0.1,0,0.3,0,0.4c-0.3,0.6-0.4,1.2-0.2,1.8c0.6,1.3,2.5,0.8,2.6-0.6
					c0-0.9-0.3-1.9-0.9-2.7c-0.3,0.2-0.8,0.7-1.1,1c0-0.1,0-0.2,0-0.4c0.3-0.3,0.5-0.6,0.9-0.7c0,0,0.1,0,0.1,0
					c-0.2-0.2-0.5-0.6-0.7-0.8c0-0.1,0-0.2,0.1-0.3c0.1,0.1,0.7,0.7,0.9,0.9c2.1-0.8,4.7,0,6.3,1.5c0.5,0.5,1.1,1.1,1.4,1.8
					c1,0.2,2,0.6,3,0.9c1.2,0.4,3.1,0.6,4.1-0.4c1-0.9,0.5-2.3-0.8-3.3c0.6,0.4,1.6,1.4,1.7,2.1c0.4,1.9-2.1,2.4-3.5,2.3
					c-1.6-0.1-3-1.2-4.5-1.4c0.1,0.2,0.1,0.5,0.1,0.7c0,1.2-0.8,2.6-2,2.9c-0.8,0.2-2.1-0.1-2.3-1c-0.3-1.3,1-2.5,2.2-2.8
					c0.4-0.1,0.9-0.1,1.3-0.1c-1-2.4-4.5-4.1-7-3.1c0,0-0.1,0-0.1,0c0.8,0.9,1.5,2.1,1.2,3.2c-0.2,0.8-1.3,1.3-2.1,1.2
					C136.6,47,136.8,45.2,137.5,44z M146.1,46.1c-1.1,0.1-2.5,0.7-2.8,1.9c-0.2,0.7,0.1,1.6,0.9,1.6c1.6,0.1,2.8-2.1,2.3-3.5
					c0,0,0,0,0-0.1C146.3,46,146.2,46,146.1,46.1z M78.4,28.5c-1.5-1.7-4-2.7-6.1-1.8c-1.5,0.6-3,2.2-3.5,3.7
					c-1.7,4.9,2.9,9.1,7,11.6c0.1,0,0.3-0.1,0.4-0.1c-0.7-0.4-1.6-0.9-2.2-1.4c-2.3-1.7-4.3-4.1-4.7-7.1c-0.3-1.9,0.3-4,1.7-5.4
					c1.8-1.9,4.3-1.8,6.3-0.3c2.4,1.8,2.8,5.2,0.9,7.6c-1.9,2.5-6.2,1.2-6.5-1.7c0,3,3.4,4.1,5.9,3C80.7,35.3,80.3,30.8,78.4,28.5z
					 M41.8,135.2c0.1,0.2,0.2,0.2,0.2,0.3c2.1-3.1,6.2-6.3,10-6.1c0.9,0,2,0.3,2.9,0.7c0-0.1,0-0.2-0.1-0.4
					c-0.7-0.3-1.5-0.5-2.3-0.6C48.4,128.7,44.1,131.8,41.8,135.2z M55.3,129.9c0,0.1,0,0.3,0,0.4c2.7,1.3,5.2,3.9,5.5,6.8
					c0.3,3.3-2.4,5.7-5.5,6.4c0,0.3,0,0.7-0.1,1.1c3.1-0.9,5.8-3.7,5.9-7.1C61.1,134.2,58.3,131.2,55.3,129.9z M41.8,135.3
					c-4.3-6-8.7-28.6,5.1-32.3c0-0.2,0.1-0.3,0.2-0.6c-16.5,4.8-9.9,28.4-5.6,33.4c1.4,2,6.4,8.5,11.3,8.9c0.5,0,1,0,1.6-0.1
					c0.1-0.2,0.2-0.7,0.2-1.1c0,0,0,0,0,0c-0.7,0.1-1.4,0.1-2.1,0.1C47.8,143.1,41.9,135.5,41.8,135.3z M38.9,190.3
					c-2.1,4.4,1.1,9.6,5.3,11.6c4.1,2,10-0.5,13.2-3.7c3.3-3.4,4.7-8.2,4.3-12.8c-0.4-4.3-2.1-8.5-4.2-12.2
					c-1.5-2.7-3.1-5.3-5.1-7.7c-1.7-2.1-3.4-4.1-5-6.3c0.2,0.2,0.4,0.4,0.6,0.5c1.5,1.4,3,2.9,4.4,4.4c2.9,3.1,5.7,6.5,8,10.1
					c2.5,3.8,4.6,7.9,5.5,12.3c0.4,2.1,0.6,4.2,0.3,6.3c0,0.2-0.6,3.1-2.6,5.1c-0.8,0.8-2.8,2.4-2.6,2.2c-1,0.8-0.3,2.5,0.8,2.9
					c1.2,0.4,1.9-0.5,2.4-1.4c0.6-1.2,1.1-2.6,1.3-3.9c0.1-0.7,0.9-5.2,0.9-5.4c0.3-2.3,0-4.5-0.5-6.7c-1.1-4.7-3.4-9-6.1-13
					c-2.5-3.7-5.4-7.1-8.4-10.3c-0.8-0.8-1.6-1.6-2.4-2.4c2.8,2,5.6,4.1,8.2,6.3c3.5,2.9,6.8,6.1,9.4,9.9c1.2,1.7,2.2,3.5,3.1,5.3
					c0.1,0.2,0.8,1.9,1.3,3.1c0,0.9,0.1,1.8,0,2.7c0,0.9,0,3.1-0.1,2.9c0.2,0.9,1.3,1.5,2.1,1.1c0.9-0.4,0.9-1.4,0.6-2.2
					c-0.4-1.1-1-2.1-1.6-3.1c-0.3-0.4-0.7-1.4-1.1-1.7c-0.5-1.2-1.1-2.9-1.2-3.1c-0.9-2-2-3.9-3.3-5.7c-2.7-3.8-6.1-7.2-9.7-10.2
					c-2.2-1.8-4.5-3.5-6.8-5.2c1.1,0.6,2.3,1.2,3.5,1.6c3.7,1.4,7.6,1.7,11.6,1.5c4-0.2,8.4-1.1,12.3,0.4c2.1,0.8,4.2,2.3,5,4.4
					c0.9,2.2,0.6,4.9-0.4,7c-1,2-2.9,3.5-5.1,3.6c-2.1,0.1-4.2-0.9-5.4-2.6c-1.2-1.7-1.3-4.3,0.3-5.7c0.8-0.7,1.9-0.8,2.8-0.2
					c0.4,0.3,0.7,0.8,0.6,1.3c-0.1,0.3-0.6,1-0.9,0.5c0.8-0.6-0.4-1.7-1.1-0.7c-0.6,0.8,0,1.8,0.9,2.1c1.1,0.3,2.1-0.6,2.4-1.6
					c0.2-1-0.2-1.9-0.9-2.5c-1.5-1.3-3.7-0.9-5,0.5c-1.3,1.4-1.6,3.4-1.1,5.1c1.2,4.1,6.3,6.2,10.1,4.4c3.9-1.9,5.5-7,4.3-11
					c-1.4-4.6-6.5-6.6-11-6.7c-0.4,0-0.9,0-1.3,0c2.2-0.6,4.3-1.5,6.2-2.6c4.2-2.5,8.8-7.4,8.3-12.7c-0.2-1.7-0.8-3.4-1.9-4.7
					c-0.5-0.7-1.2-1.3-1.7-1.8c-1.2-1.2-2.5-2.3-3.7-3.5c-2.3-2.3-4.4-5.4-3.6-8.8c0.7-2.8,3.2-4.9,6.1-5c2.9-0.1,5.4,1.9,5.5,4.9
					c0,1.4-0.6,2.7-1.9,3.3c-1.3,0.6-3,0.4-3.6-1c-0.3-0.6-0.3-1.4,0.2-2c0.4-0.5,1.2-0.7,1.7-0.3c0.5,0.3,0.7,1.2,0.1,1.5
					c-0.8,0.4-1-0.8-0.5-0.7c-0.5-0.1-0.4,0.6-0.1,0.8c0.4,0.2,0.8-0.1,0.9-0.5c0.3-0.8-0.5-1.4-1.2-1.4c-2,0.1-1.8,2.8-0.5,3.7
					c1.4,1,3.6,0.3,4.5-1.1c0.9-1.3,0.8-3.2,0.1-4.6c-1.4-2.7-5.1-4-7.9-3.3c-3.3,0.8-5.5,3.7-5.1,7.3c0.3,3.1,2,6,5.2,8.4
					c1.2,0.9,2.5,1.7,3.6,2.7c-0.1,0-0.1-0.1-0.2-0.1c-2.1-1-4.7-0.5-6.1,1.4c-1.3,1.8-1.2,4.7,1.4,5.3c1,0.2,2.3-0.5,2.3-1.6
					c0-0.5-0.4-1-0.9-1.1c-0.2,0-1,0.5-0.8,0.6c0.2,0.1,0.4-0.6,1-0.2c0.5,0.3,0.5,1,0.1,1.4c-0.5,0.7-1.5,0.7-2.1,0.2
					c-2.3-1.5-0.5-4.6,1.5-5.3c2.4-0.9,4.8,0.8,5.9,3c1.1,2.1,1.3,4.7,0.1,6.8c-5.8,10.7-20.1,11.6-22.7,11.5
					c-3.5-0.1-7-0.9-10.1-2.4c-0.2-0.1-0.4-0.2-0.6-0.3c3.1,1.2,6.4,2,9.8,2.1c3.6,0.1,7.3-0.7,10.5-2.3c2.7-1.4,6.8-4.1,9.5-8.4
					c0.2-0.3,0.7-1.8-0.2-1.6c-0.7,0.1-1,0.9-1.3,1.5c-1.9,4-7.1,8-8.6,8.7c-3.3,1.5-6.9,2.1-10.5,1.9c-3.7-0.2-7.4-1.2-10.8-2.8
					c-0.2-0.1-0.4-0.2-0.6-0.3c-0.3-0.2-0.7-0.4-1-0.7c0.8,0.4,1.6,0.7,2.4,1.1c2.7,1.1,5.6,1.9,8.5,2c2.8,0.1,5.6-0.6,8-1.9
					c1.2-0.6,5.1-2.2,8-6.4c0.1-0.1,0.3-0.4,0,0c1.3-1.9,0.1-2.1-0.3-1.4c-1.3,2-3.2,5-7.8,7.7c-2.5,1.4-4.9,1.7-7.9,1.8
					c-3,0.1-6.4-1.1-9.1-2.3c0,0-0.1-0.1-0.2-0.1c0.7,0.3,1.4,0.5,2.1,0.8c3.3,0.9,7,0.8,10.2-0.4c3.3-1.2,6.4-3.4,8.4-6.3
					c1-1.4,2.7-4.2,3.1-9.1c0.2-3-0.7-4.7-1.5-4c-0.6,0.5,0,1.5,0.2,2.2c1.5,5.1-1.3,9.9-2.3,11.3c-2.1,2.8-5.1,4.9-8.5,5.9
					c-3.4,1.1-7,1-10.4-0.2c-0.5-0.2-0.9-0.3-1.4-0.5c2.2,0.7,4.7,1,7,0.7c5-0.7,9.2-3.6,11.8-8c0.8-1.1-0.7-2-1.5-0.3
					c-2.8,5.6-6.6,6.8-9.4,7.5c-2.9,0.7-6,0.5-8.8-0.5c-0.4-0.1-1.7-0.6-3.2-2c2.4,1.1,4.9,1.8,7.2,1.8c4.1,0,7.7-2,9.6-5.7
					c0.4-0.6-0.4-1.6-1.2-0.1c-2.4,4.4-5.6,4.9-7.8,5.2c-2.3,0.3-4.7-0.1-6.8-1c-0.1,0-0.8-0.3-1.6-0.7c-0.3-0.2-0.6-0.4-0.9-0.8
					c0.7,0.3,1.4,0.6,2,0.8c1.4,0.5,2.8,0.8,4.2,0.9c2.8,0.2,5-1,6.9-3.2c1-1.1,0.3-2.2-0.9-0.5c-2.3,2.8-4.2,3.7-9.9,2.6
					c-0.7-0.1-2.3-0.7-2.4-0.8c-1.2-2.3-2.1-4.8-2.6-7.4c-0.3-1.5-0.4-3-0.4-4.4c0-0.9,0.1-2.9,0.9-5.1c-0.1-0.1-0.2-0.1-0.3-0.3
					c-0.3,1-0.7,2.6-1,3.5c-1.7,6.4-1.3,13.1,2.2,18.8c1,1.7,2.3,3.2,3.6,4.8c2.6,3.3,4.8,7.1,6.8,10.8c3.5,6.5-0.1,8.2-1.4,8
					c-0.4-0.1-0.9-0.2-1.1,0.3c-1.4,4.3,3.2,5.8,4.8,4.9c-0.2,0.9-1.1,0.9-1.8,1.1c-1,0.2-1.8,1.1-2.2,2.1c-0.4,0.8-0.4,1.8-0.5,2.7
					c0,0.7,0.1,1.5-0.2,2.2c-1,2.1-3.4,3.5-5.7,3.1c-2-0.4-4-2-4.5-3.9c-0.5-2,0-4.3,1.4-5.4c0.3-0.1-0.1-0.8-0.2-0.9
					c-0.3-0.1-0.6,0-0.8,0.2C39.9,188.8,39.3,189.5,38.9,190.3z M52.3,104.5c0.6,0.9,1,2.4,0.3,3.3c-0.4,0.5-1.8,0.4-1.8-0.4
					c0-0.2-0.1-0.6-0.3-0.2c-0.2,0.4,0,0.5,0.3,0.8c0.7,0.6,1.6,0.7,2.1-0.2c0.5-1,0.2-2.4-0.3-3.4c-0.8-1.3-2.4-2.1-3.9-2.2
					c-0.1,0.2-0.2,0.4-0.2,0.6C50.3,102.8,51.8,103.7,52.3,104.5z M48.7,178.6C48.7,178.6,48.7,178.8,48.7,178.6L48.7,178.6z
					 M36,142.3c-0.7,1.8-1,3.7-1,5.5c0,4.2,1.6,8.1,3.5,11.7c2,3.7,4.4,7.1,6.8,10.5c1.1,1.6,2.1,3.2,2.9,4.9
					c0.3,0.7,0.6,1.4,0.7,2.2c0.1,0.6-0.1,1-0.1,1.5c-0.3,0.7,0.4,1.9,1.2,1.7c0.8-0.2,1-1.1,1.1-1.8c0.3-2-0.7-3.9-1.7-5.6
					c-2.3-3.8-5.3-7.2-7.8-10.8c-2.6-3.8-5.1-8-5.8-12.6c-0.3-2.2-0.3-4.4,0.3-6.6c0.1-0.3,1-2.8,1.5-3.8C37,140,36.1,142,36,142.3z
					 M81,150.3C80.8,150.7,81.4,149.6,81,150.3L81,150.3z M53.8,136.7c0.3-1.2,1.5-2.4,2.8-2.1c0.9,0.2,1.2,1.5,1,2.3
					c-0.4,1.2-1.8,1.9-3,1.9c-0.2,0-0.5-0.1-0.7-0.2c0.2,1.5,1.2,3,1.3,4.6c0,1.4-0.5,3.9-2.4,3.4c-0.7-0.2-1.7-1.2-2-1.8
					c1,1.3,2.3,1.8,3.3,0.9c1-1,0.9-2.9,0.5-4.1c-0.3-1-0.7-2-0.8-3.1c-0.7-0.3-1.3-1-1.8-1.5c-1.4-1.6-2.1-4.3-1.3-6.3
					c-0.2-0.2-0.8-0.9-0.9-0.9c0.1,0,0.2-0.1,0.3-0.1c0.2,0.2,0.5,0.5,0.7,0.7c0,0,0-0.1,0-0.1c0.2-0.3,0.4-0.6,0.7-0.8
					c0.2,0,0.3,0,0.4,0c-0.3,0.3-0.8,0.8-1,1.1c0.8,0.6,1.7,1,2.6,1c1.4,0,1.9-1.9,0.7-2.6c-0.6-0.3-1.2-0.2-1.8,0.1
					c-0.2,0-0.3-0.1-0.4,0c1.3-0.7,3-0.8,3.1,1.1c0.1,0.9-0.4,1.9-1.3,2.1c-1,0.3-2.2-0.5-3.1-1.3c0,0,0,0.1,0,0.1
					c-1.1,2.4,0.5,6,2.9,7.1C53.6,137.5,53.7,137.1,53.8,136.7z M53.9,138C53.9,138,53.9,138,53.9,138c1.4,0.5,3.7-0.6,3.6-2.2
					c0-0.8-1-1.1-1.6-0.9c-1.2,0.2-1.9,1.6-2,2.7C53.9,137.7,53.8,137.9,53.9,138z M40.7,59.8c-1.6,0.5-3.2,1.9-3.8,3.4
					c-0.9,2.1-0.1,4.6,1.6,6.2c2.2,2,6.7,2.5,8.2-0.6c1.2-2.4,0.2-5.8-2.8-6c2.9,0.5,4.1,4.8,1.5,6.6c-2.5,1.7-5.9,1.2-7.6-1.2
					c-1.4-2.1-1.4-4.6,0.5-6.3c1.5-1.3,3.5-1.9,5.5-1.5c2.9,0.5,5.2,2.6,6.9,5c0.5,0.6,0.9,1.6,1.3,2.3c0-0.1,0.1-0.3,0.1-0.4
					C49.8,63,45.7,58.3,40.7,59.8z M54.2,47c5.1,6.5,1,13.7-1.2,20.4c-1.2,3.7-2.8,7.2-2.7,11.6c0,3.6,1.2,6.6,2.7,8.8
					c1.4-3.4,2.3-6.9,2.1-10.8c-0.2-2.8-1.1-5.7-2.4-8.2c0-0.1,0.1-0.2,0.2-0.3c1.9,3.6,2.8,7.7,2.6,11.4c-0.1,3-0.8,5.9-1.7,8.8
					c2,2.3,4.4,3.5,6.1,3.4c2.9-0.2,5.2-2.8,5.8-5.5c0.7-3-1.7-11.2-8.4-12.1c4.7,0.4,7.5,3.6,8.9,7.9c1.2,3.6,0.6,8.6-3,10.6
					c-3.6,2-7.4-0.8-9.6-3.5c0,0,0,0,0,0c-0.1,0.2-0.1,0.3-0.2,0.5c-2.2,6.5-5.9,12.9-6.3,19.9c-0.2,3.7,1,6.8,3.1,9.8
					c0.2,0.2,0.3,0.4,0.5,0.6c1.7-2.6,4.3-4.4,7.4-4.7c2.4-0.2,4.9,0.7,6,3c0.8,1.8,0.6,4-0.7,5.5c-1.9,2.2-5.3,1.8-7.7,0.7
					c-2-0.9-3.7-2.3-5.1-4c-0.3,0.5-0.6,1.1-0.9,1.7c-0.8,1.8-1.2,3.9-0.5,5.8c0.1,0.3,0.3,0.6,0.5,0.9c-0.1,0-0.1,0-0.3,0.1
					c-1.4-2.4-0.7-5.7,0.6-8c0.1-0.2,0.3-0.4,0.4-0.7c-1.1-1.4-1.9-2.9-2.6-4.4c-2.6-5.9-1-13.5,1.2-19.1c1.1-2.9,2.5-5.7,3.7-8.5
					c-2.2-3.1-3.5-6.7-3.1-10.5c0.4-4.7,1.8-8,3.1-12c1.2-3.9,2.8-8.3,3.2-12.3c0.3-3-0.8-6.5-4-7.4c-1.6-0.5-3.8-0.4-5.3,0.6
					c-0.8,0.5-1.5,1.4-1.6,2.4c0,0.2-0.1,1.5,0,1.6c1.3,0.7,2.1,1.8,3.7,1.2c1.2-0.4,1.9-1.5,1.8-2.7c-1.4-0.7-3.5,0.2-2.6,2.1
					c0,0,0,0-0.1-0.1c0,0,0,0.1,0.1,0.1c-0.6-1.1-2-3.1-0.2-3.9c1.7-0.7,2.7,1,3.4,2.2c0,0.1,0.1,0.1,0.1,0.2c0,0,0,0,0,0.1
					c0,0,0,0,0,0c1.3,2.8-2.3,4.4-4.8,2.8c-2.9-1.8-3.6-6.3,0-7.9C49.3,43.6,52.4,44.8,54.2,47z M60.4,124.5c2.5-0.4,4.2-2,3.9-4.4
					c-0.4-2.9-3.5-3.5-6.2-3.4c-3.2,0.2-5.6,1.5-7.3,3.9C53.1,123.3,56.6,125.1,60.4,124.5z M47.9,51.1
					C47.9,51.1,47.9,51.2,47.9,51.1C47.9,51.2,47.9,51.1,47.9,51.1z M47.8,50.9c0,0.1,0.1,0.1,0.1,0.2C47.9,51,47.8,51,47.8,50.9z
					 M47.7,50.7c0-0.1-0.1-0.1-0.1-0.2C47.6,50.6,47.7,50.6,47.7,50.7z M47.6,50.5C47.6,50.4,47.6,50.4,47.6,50.5
					C47.6,50.4,47.6,50.4,47.6,50.5z M78.1,65c0.8,0.2,2.8,0.4,3.5-2c1-3.1-7.2-6.1-8.4-6.5c-0.6-0.2-3.7-1.8-6.8-3.4
					c4.8,2,11,3.6,12.4,0.9c-2.2-0.4-1.7-1.7-1.7-1.7c4.6-0.9,3.9-6.8,0.5-6.8c0.5,3.6-12.4,7.1-21.4,0.8c6.7,9,2.6,21.5-1,20.9
					c0,3.3,5.8,4.2,6.8-0.4c0,0,1.3-0.4,1.6,1.8c3-1.5,0.9-9-1.2-14c1.5,3.1,3.2,6.7,4,8.4c1.4,3.4,3.6,9.1,6.1,8.7
					c2.2-0.3,2.8-2.6,2.2-3.9c0,0,4.8,7.6,7.8,4.8C85.2,70.1,80.1,65.7,78.1,65z"/>
				<path class="st2" d="M137.9,556c0,3.8,3.3,7.8,6.4,9.8c-0.1,0.1-0.1,0.2-0.3,0.2c-3.4-2.2-6.7-6.4-6.4-10.6
					c0.1-0.7,0.2-1.5,0.5-2.3c0.1-0.1,0.3-0.1,0.4-0.1C138.2,554,137.9,555.2,137.9,556z M145.2,547c3.3-0.4,5.8,2.3,6.6,5.3
					c0.3,0,0.7,0,1.1,0.1c-1-3.1-3.9-5.7-7.3-5.7c-3.2,0-6.1,3-7.3,6c0.1,0,0.3-0.1,0.4,0C139.8,549.9,142.4,547.4,145.2,547z
					 M153.2,554.8c0-0.5,0-1-0.1-1.6c-0.2-0.1-0.7-0.2-1.1-0.2c0,0,0,0,0,0c0.1,0.7,0.2,1.4,0.1,2.1c-0.3,4.7-7.8,10.8-7.9,11
					c-5.8,4.5-28.3,9.6-32.4-4.1c-0.2,0-0.3-0.1-0.6-0.2c5.4,16.3,28.7,9,33.6,4.5C146.7,565,153,559.7,153.2,554.8z M211.1,543.8
					c0.3-1.2-0.6-1.9-1.5-2.4c-1.3-0.6-2.6-1-4-1.2c-0.7-0.1-5.2-0.7-5.4-0.7c-2.3-0.2-4.5,0.1-6.7,0.7c-4.7,1.2-8.9,3.7-12.8,6.6
					c-3.6,2.6-6.9,5.6-10,8.8c-0.8,0.8-1.6,1.6-2.3,2.5c1.9-2.9,3.9-5.7,6-8.4c2.8-3.6,5.9-7,9.6-9.7c1.6-1.2,3.4-2.3,5.2-3.3
					c0.2-0.1,1.9-0.9,3-1.4c0.9-0.1,1.8-0.1,2.7-0.1c0.9,0,3.1-0.1,2.9,0c0.9-0.2,1.5-1.3,1-2.2c-0.5-0.9-1.4-0.9-2.2-0.6
					c-1.1,0.5-2.1,1.1-3.1,1.7c-0.4,0.3-1.4,0.7-1.7,1.2c-1.2,0.5-2.9,1.2-3.1,1.3c-2,1-3.8,2.2-5.6,3.5c-3.8,2.8-7,6.3-9.8,10
					c-1.8,2.3-3.4,4.6-5,7c0.6-1.2,1.1-2.4,1.5-3.6c1.2-3.8,1.4-7.7,1.1-11.6c-0.3-4-1.4-8.4,0-12.3c0.7-2.1,2.2-4.2,4.2-5.2
					c2.2-1,4.9-0.8,7.1,0.2c2,0.9,3.6,2.7,3.8,5c0.2,2.1-0.8,4.3-2.4,5.5c-1.6,1.3-4.2,1.5-5.7-0.2c-0.7-0.8-0.9-1.9-0.3-2.8
					c0.3-0.4,0.7-0.7,1.3-0.6c0.3,0.1,1,0.6,0.6,0.9c-0.6-0.8-1.7,0.4-0.7,1.1c0.8,0.6,1.8-0.1,2.1-1c0.3-1.1-0.7-2.1-1.7-2.3
					c-1-0.2-1.9,0.3-2.5,1c-1.3,1.6-0.8,3.7,0.7,4.9c1.4,1.2,3.4,1.5,5.2,0.9c4.1-1.3,6-6.5,4-10.2c-2-3.8-7.2-5.3-11.1-4
					c-4.6,1.5-6.4,6.8-6.4,11.2c0,0.4,0,0.9,0,1.3c-0.7-2.2-1.6-4.2-2.8-6.1c-2.7-4.1-7.7-8.6-13-7.9c-2,0.3-4,1.2-5.3,2.8
					c-0.6,0.7-1.1,1.7-1.5,2.4c-0.8,1.5-1.4,3.1-2.3,4.6c-1.6,2.9-3.8,5.8-7.4,6c-2.9,0.2-5.6-1.6-6.6-4.4c-1-2.7,0.2-5.7,3-6.7
					c1.3-0.4,2.7-0.2,3.7,0.8c1,1,1.3,2.7,0.1,3.7c-0.5,0.4-1.3,0.7-1.9,0.4c-0.6-0.2-1-0.9-0.8-1.6c0.2-0.5,0.9-1,1.4-0.5
					c0.6,0.6-0.4,1.2-0.5,0.6c0.1,0.5,0.7,0.2,0.8-0.2c0.1-0.4-0.3-0.7-0.7-0.7c-0.8,0-1.2,0.9-0.9,1.6c0.7,1.9,3.2,0.9,3.7-0.6
					c0.6-1.7-0.8-3.5-2.4-4c-1.6-0.5-3.3,0.2-4.4,1.3c-2.2,2.1-2.4,6-0.9,8.6c1.7,2.9,5.2,4.1,8.5,2.7c2.8-1.2,5.2-3.7,6.5-7.5
					c0.5-1.3,0.9-2.7,1.5-4c-0.2,1.8,0.5,3.6,2,4.7c1.8,1.3,4.8,1,5.3-1.5c0.2-1-0.5-2.3-1.7-2.2c-0.5,0-1,0.4-1.1,0.9
					c0,0.2,0.5,1,0.6,0.7c0.1-0.2-0.6-0.4-0.3-1c0.3-0.5,1-0.5,1.4-0.2c0.7,0.5,0.7,1.4,0.3,2.1c-1.4,2.4-4.5,0.6-5.3-1.3
					c-0.9-2.4,0.7-4.8,2.8-5.9c2.1-1.1,4.7-1.4,6.8-0.4c10.9,5.5,12.2,19.7,12.3,22.3c0,3.5-0.6,7-2.1,10.2
					c-0.1,0.2-0.2,0.4-0.3,0.6c1.1-3.1,1.8-6.5,1.7-9.8c0-3.6-0.9-7.2-2.7-10.4c-1.5-2.7-4.4-6.7-8.7-9.3c-0.3-0.2-1.9-0.6-1.6,0.3
					c0.2,0.7,1,1,1.6,1.3c4.1,1.8,8.2,6.8,9,8.3c1.6,3.2,2.3,6.9,2.3,10.5c-0.1,3.7-1,7.5-2.5,10.9c-0.1,0.2-0.2,0.4-0.3,0.6
					c-0.2,0.3-0.4,0.7-0.6,1c0.4-0.8,0.7-1.6,1-2.4c1-2.7,1.7-5.6,1.7-8.6c0-2.8-0.7-5.5-2.1-8c-0.7-1.2-2.4-5-6.7-7.7
					c-0.1-0.1-0.4-0.3,0,0c-1.9-1.2-2.1-0.1-1.4,0.4c2,1.3,5.1,3.1,7.9,7.6c1.5,2.5,1.9,4.9,2.1,7.9c0.2,3-0.9,6.4-2,9.2
					c0,0,0,0.1-0.1,0.2c0.3-0.7,0.5-1.4,0.7-2.1c0.8-3.4,0.6-7-0.7-10.2c-1.3-3.3-3.6-6.3-6.6-8.2c-1.4-0.9-4.3-2.5-9.2-2.8
					c-3-0.2-4.6,0.9-4,1.6c0.5,0.6,1.5,0,2.2-0.2c5.1-1.6,10,0.9,11.4,2c2.9,2,5,5,6.2,8.3c1.2,3.3,1.2,7,0.2,10.4
					c-0.1,0.5-0.3,0.9-0.5,1.4c0.7-2.3,0.8-4.7,0.4-7c-0.9-5-3.9-9.1-8.4-11.5c-1.1-0.7-2,0.7-0.3,1.5c5.7,2.6,7,6.4,7.8,9.2
					c0.8,2.9,0.7,6-0.2,8.8c-0.1,0.4-0.6,1.7-1.9,3.3c1-2.4,1.7-5,1.6-7.3c-0.2-4.1-2.3-7.7-6-9.4c-0.7-0.4-1.6,0.4,0,1.2
					c4.5,2.2,5.1,5.4,5.4,7.6c0.3,2.3,0,4.7-0.7,6.8c0,0.1-0.3,0.8-0.7,1.6c-0.2,0.3-0.4,0.6-0.8,0.9c0.3-0.7,0.6-1.4,0.8-2
					c0.4-1.4,0.8-2.8,0.8-4.3c0.1-2.8-1.2-5-3.4-6.7c-1.1-0.9-2.2-0.2-0.5,0.9c2.9,2.2,3.9,4.1,2.9,9.8c-0.1,0.7-0.7,2.3-0.7,2.4
					c-2.3,1.2-4.7,2.3-7.3,2.8c-1.5,0.3-2.9,0.5-4.4,0.5c-0.9,0-2.9,0-5.1-0.7c-0.1,0.1-0.1,0.2-0.3,0.3c1,0.3,2.6,0.6,3.6,0.9
					c6.5,1.5,13.1,0.9,18.7-2.8c1.7-1.1,3.2-2.4,4.7-3.7c3.2-2.8,7-5,10.6-7.1c6.4-3.7,8.2-0.2,8,1.2c-0.1,0.4-0.1,0.9,0.3,1.1
					c4.3,1.2,5.7-3.4,4.8-5c0.9,0.1,0.9,1.1,1.1,1.8c0.3,1,1.2,1.8,2.1,2.2c0.9,0.3,1.8,0.4,2.7,0.4c0.7,0,1.5-0.2,2.2,0.1
					c2.2,0.9,3.6,3.2,3.3,5.6c-0.3,2-1.9,4-3.8,4.6c-2,0.6-4.3,0.1-5.4-1.2c-0.1-0.3-0.8,0.1-0.9,0.3c-0.1,0.3,0.1,0.6,0.2,0.8
					c0.5,0.7,1.3,1.3,2.1,1.7c4.4,2,9.5-1.5,11.4-5.6c1.9-4.2-0.8-10-4.1-13.1c-3.5-3.2-8.3-4.4-13-3.9c-4.3,0.5-8.4,2.4-12.1,4.6
					c-2.7,1.6-5.2,3.3-7.5,5.3c-2,1.8-4,3.5-6.2,5.2c0.2-0.2,0.3-0.4,0.5-0.6c1.4-1.5,2.8-3,4.2-4.5c3-3,6.3-5.9,9.8-8.4
					c3.7-2.6,7.7-4.9,12.1-5.9c2.1-0.5,4.2-0.7,6.3-0.5c0.2,0,3.1,0.5,5.2,2.4c0.8,0.7,2.5,2.7,2.3,2.5
					C209.1,545.7,210.8,545,211.1,543.8z M113,556.5c0.8-0.6,2.4-1.1,3.3-0.4c0.5,0.3,0.4,1.8-0.3,1.8c-0.2,0-0.6,0.1-0.2,0.3
					c0.4,0.2,0.5,0,0.8-0.4c0.5-0.7,0.7-1.7-0.3-2.1c-1-0.5-2.4-0.1-3.3,0.5c-1.2,0.8-2,2.5-2,4c0.2,0.1,0.4,0.1,0.6,0.2
					C111.4,558.6,112.3,557.1,113,556.5z M187.2,557.7C187.2,557.7,187.4,557.8,187.2,557.7L187.2,557.7z M187,555.4
					c-2-0.2-3.9,0.9-5.5,1.9c-3.7,2.4-7,5.5-10.6,8.2c-3.7,2.8-7.8,5.4-12.4,6.2c-2.2,0.4-4.4,0.4-6.6-0.1c-0.3-0.1-2.8-0.9-3.8-1.4
					c0.9,0.5,3,1.4,3.2,1.5c1.8,0.6,3.7,0.9,5.6,0.8c4.1-0.2,8.1-1.8,11.6-3.9c3.6-2.1,6.9-4.7,10.3-7.1c1.5-1.1,3.1-2.2,4.8-3.1
					c0.7-0.3,1.4-0.6,2.1-0.8c0.6-0.1,1,0.1,1.5,0.1c0.8,0.3,1.9-0.4,1.6-1.3C188.6,555.7,187.7,555.5,187,555.4z M157.9,526.4
					C158.2,526.6,157.2,526,157.9,526.4L157.9,526.4z M105.6,560.1c-3-1-5.8-2.3-8.7-3.4c-3,2.3-6.6,3.7-10.4,3.5
					c-4.7-0.3-8-1.5-12.1-2.7c-3.9-1.1-8.4-2.6-12.4-2.8c-3-0.2-6.4,1.1-7.3,4.2c-0.5,1.6-0.3,3.8,0.7,5.2c0.5,0.7,1.5,1.4,2.4,1.5
					c0.2,0,1.5,0,1.6-0.1c0.6-1.3,1.8-2.1,1.1-3.8c-0.5-1.2-1.6-1.9-2.7-1.7c-0.7,1.4,0.3,3.5,2.2,2.5c0,0-0.1,0-0.1,0.1
					c0,0,0.1,0,0.1-0.1c-1.1,0.6-3,2.1-3.9,0.3c-0.8-1.7,0.9-2.7,2.1-3.4c0.1,0,0.1-0.1,0.2-0.1c0,0,0,0,0.1,0c0,0,0,0,0,0
					c2.8-1.4,4.5,2.1,3,4.7c-1.7,3-6.2,3.8-7.9,0.2c-1.3-2.8-0.2-5.9,2-7.8c6.3-5.3,13.6-1.5,20.4,0.5c3.8,1.1,7.3,2.6,11.6,2.4
					c3.6-0.2,6.5-1.4,8.7-3c-3.4-1.3-6.9-2.1-10.8-1.7c-2.8,0.3-5.7,1.3-8.1,2.6c-0.1,0-0.2-0.1-0.3-0.1c3.6-2,7.6-3,11.3-3
					c3,0,6,0.6,8.9,1.5c2.3-2.1,3.4-4.5,3.3-6.2c-0.3-2.9-3-5.1-5.7-5.6c-3-0.6-11.1,2.1-11.8,8.8c0.3-4.8,3.3-7.6,7.6-9.2
					c3.6-1.3,8.6-0.9,10.7,2.6c2.1,3.6-0.5,7.5-3.2,9.8c0,0,0,0,0,0c0.2,0.1,0.3,0.1,0.5,0.2c6.6,2,13.1,5.5,20.1,5.6
					c3.7,0.1,6.8-1.2,9.7-3.4c0.2-0.2,0.4-0.3,0.6-0.5c-2.7-1.6-4.5-4.1-4.9-7.3c-0.3-2.4,0.5-4.9,2.8-6.1c1.7-0.9,4-0.7,5.5,0.5
					c2.3,1.8,1.9,5.2,1,7.6c-0.8,2-2.2,3.7-3.8,5.2c0.5,0.3,1.1,0.6,1.7,0.9c1.8,0.7,3.9,1,5.8,0.3c0.3-0.1,0.6-0.3,0.9-0.5
					c0,0.1,0,0.1,0.1,0.3c-2.3,1.5-5.7,0.8-8-0.3c-0.2-0.1-0.5-0.2-0.7-0.4c-1.3,1.1-2.8,2-4.3,2.7
					C119,563.4,111.4,562.1,105.6,560.1z M129.1,557.6c2.6-2.4,4.3-5.9,3.6-9.7c-0.5-2.5-2.1-4.2-4.6-3.7c-2.9,0.5-3.4,3.6-3.2,6.3
					C125.3,553.6,126.7,556,129.1,557.6z M59.1,563.1C59.1,563.1,59.1,563,59.1,563.1C59.1,563,59.1,563.1,59.1,563.1z M59.6,562.8
					c0.1,0,0.2-0.1,0.3-0.2C59.8,562.7,59.7,562.7,59.6,562.8z M59.2,563c0,0,0.1-0.1,0.2-0.1C59.3,562.9,59.3,563,59.2,563z
					 M138.4,552.8c0.9-0.1,1.9,0.4,2.1,1.2c0.3,1-0.5,2.2-1.2,3.2c0,0,0.1,0,0.1,0c2.4,1,6-0.7,7-3.1c-0.4,0-0.9,0-1.3-0.1
					c-1.2-0.3-2.5-1.4-2.2-2.8c0.2-0.9,1.5-1.3,2.3-1c1.2,0.4,2,1.8,2,2.9c0,0.2-0.1,0.5-0.1,0.7c1.5-0.3,3-1.3,4.5-1.4
					c1.4-0.1,3.9,0.4,3.5,2.3c-0.2,0.7-1.1,1.7-1.7,2.1c1.3-1,1.7-2.3,0.8-3.3c-1-1-2.9-0.8-4.1-0.4c-1,0.3-2,0.8-3,0.9
					c-0.3,0.7-0.9,1.4-1.4,1.8c-1.6,1.5-4.2,2.3-6.3,1.5c-0.2,0.2-0.9,0.8-0.9,0.9c0-0.1-0.1-0.2-0.1-0.3c0.2-0.2,0.5-0.5,0.7-0.8
					c0,0-0.1,0-0.1,0c-0.3-0.2-0.6-0.4-0.9-0.7c0-0.2,0-0.3,0-0.4c0.3,0.3,0.8,0.8,1.1,1c0.6-0.8,0.9-1.7,0.9-2.7
					c-0.1-1.4-2-1.9-2.6-0.6c-0.3,0.6-0.2,1.2,0.2,1.8c0,0.2,0,0.3,0,0.4C136.8,554.8,136.6,553,138.4,552.8z M146.5,553.9
					C146.5,553.9,146.5,553.9,146.5,553.9c0.5-1.4-0.7-3.7-2.3-3.5c-0.8,0.1-1,1-0.9,1.6c0.3,1.1,1.7,1.8,2.8,1.9
					C146.2,554,146.3,554,146.5,553.9z M77.5,563.3c-2.4-1.1-5.8,0-5.9,3c0.4-3,4.7-4.2,6.5-1.7c1.8,2.4,1.4,5.8-0.9,7.6
					c-2,1.5-4.6,1.6-6.3-0.3c-1.4-1.4-2-3.5-1.7-5.4c0.4-2.9,2.5-5.3,4.7-7.1c0.6-0.5,1.5-1,2.2-1.4c-0.1,0-0.3-0.1-0.4-0.1
					c-4.1,2.5-8.7,6.7-7,11.6c0.5,1.5,2,3.1,3.5,3.7c2.1,0.9,4.6-0.1,6.1-1.8C80.3,569.2,80.7,564.7,77.5,563.3z M52.6,470.9
					c0.7-0.1,1.5-0.3,2.3-0.6c0.1-0.1,0.1-0.3,0.1-0.4c-0.9,0.3-2,0.6-2.9,0.7c-3.8,0.2-7.9-3-10-6.1c-0.1,0.1-0.2,0.1-0.2,0.3
					C44.1,468.2,48.4,471.3,52.6,470.9z M61.1,462.6c-0.1-3.4-2.8-6.2-5.9-7.1c0.1,0.3,0.1,0.8,0.1,1.1c3,0.7,5.8,3.1,5.5,6.4
					c-0.3,2.9-2.7,5.5-5.5,6.8c0,0.1,0,0.3,0,0.4C58.3,468.8,61.1,465.8,61.1,462.6z M52.5,456.4c0.7-0.1,1.4,0,2.1,0.1c0,0,0,0,0,0
					c0-0.4-0.1-0.9-0.2-1.1c-0.5-0.1-1-0.1-1.6-0.1c-4.9,0.4-10,6.9-11.3,8.9c-4.3,5-10.9,28.6,5.6,33.4c-0.1-0.3-0.1-0.4-0.2-0.6
					c-13.8-3.7-9.4-26.3-5.1-32.3C41.9,464.5,47.8,456.9,52.5,456.4z M40.6,411.7c0.2,0.1,0.5,0.3,0.8,0.2c0.2-0.1,0.5-0.8,0.2-0.9
					c-1.4-1-1.9-3.4-1.4-5.4c0.5-2,2.4-3.6,4.5-3.9c2.3-0.4,4.7,1,5.7,3.1c0.3,0.6,0.2,1.5,0.2,2.2c0,0.9,0.1,1.8,0.5,2.7
					c0.4,0.9,1.2,1.8,2.2,2.1c0.7,0.2,1.7,0.1,1.8,1.1c-1.6-0.9-6.2,0.6-4.8,4.9c0.1,0.4,0.7,0.4,1.1,0.3c1.4-0.2,4.9,1.5,1.4,8
					c-2,3.7-4.1,7.6-6.8,10.8c-1.3,1.6-2.5,3.1-3.6,4.8c-3.5,5.7-3.9,12.4-2.2,18.8c0.2,0.9,0.6,2.6,1,3.5c0.1-0.2,0.2-0.2,0.3-0.3
					c-0.7-2.2-0.8-4.2-0.9-5.1c-0.1-1.5,0.1-3,0.4-4.4c0.5-2.6,1.4-5,2.6-7.4c0.1,0,1.6-0.6,2.4-0.8c5.6-1.1,7.6-0.2,9.9,2.6
					c1.1,1.7,1.8,0.6,0.9-0.5c-1.9-2.2-4-3.4-6.9-3.2c-1.4,0.1-2.9,0.4-4.2,0.9c-0.6,0.2-1.3,0.5-2,0.8c0.3-0.4,0.5-0.6,0.9-0.8
					c0.8-0.4,1.5-0.7,1.6-0.7c2.2-0.8,4.5-1.2,6.8-1c2.2,0.2,5.4,0.7,7.8,5.2c0.8,1.5,1.6,0.6,1.2-0.1c-1.8-3.7-5.5-5.7-9.6-5.7
					c-2.3,0-4.8,0.7-7.2,1.8c1.5-1.3,2.8-1.8,3.2-2c2.8-1,5.9-1.2,8.8-0.5c2.8,0.7,6.6,1.9,9.4,7.5c0.8,1.7,2.3,0.8,1.5-0.3
					c-2.6-4.3-6.7-7.3-11.8-8c-2.3-0.3-4.7-0.1-7,0.7c0.4-0.2,0.9-0.4,1.4-0.5c3.3-1.2,7-1.2,10.4-0.2c3.3,1,6.4,3.1,8.5,5.9
					c1.1,1.4,3.8,6.2,2.3,11.3c-0.2,0.7-0.8,1.7-0.2,2.2c0.8,0.6,1.8-1,1.5-4c-0.4-4.9-2.1-7.7-3.1-9.1c-2-2.9-5.1-5.1-8.4-6.3
					c-3.3-1.2-6.9-1.3-10.2-0.4c-0.7,0.2-1.4,0.5-2.1,0.8c0.1-0.1,0.2-0.1,0.2-0.1c2.7-1.2,6.1-2.4,9.1-2.3c3,0.1,5.4,0.4,7.9,1.8
					c4.6,2.7,6.5,5.7,7.8,7.7c0.5,0.7,1.6,0.4,0.3-1.4c0.3,0.4,0.1,0.1,0,0c-2.9-4.2-6.7-5.8-8-6.4c-2.5-1.3-5.2-1.9-8-1.9
					c-2.9,0.1-5.8,0.9-8.5,2c-0.8,0.3-1.6,0.7-2.4,1.1c0.3-0.2,0.6-0.5,1-0.7c0.2-0.1,0.4-0.2,0.6-0.3c3.4-1.6,7.1-2.6,10.8-2.8
					c3.6-0.2,7.3,0.4,10.5,1.9c1.6,0.7,6.7,4.7,8.6,8.7c0.3,0.6,0.6,1.4,1.3,1.5c0.9,0.2,0.4-1.3,0.2-1.6c-2.7-4.3-6.8-7-9.5-8.4
					c-3.2-1.7-6.9-2.4-10.5-2.3c-3.3,0.1-6.7,0.8-9.8,2.1c0.2-0.1,0.4-0.2,0.6-0.3c3.2-1.5,6.6-2.3,10.1-2.4
					c2.6-0.1,16.8,0.8,22.7,11.5c1.1,2.1,0.9,4.7-0.1,6.8c-1.1,2.1-3.4,3.8-5.9,3c-2-0.7-3.8-3.8-1.5-5.3c0.7-0.4,1.6-0.5,2.1,0.2
					c0.3,0.4,0.4,1.1-0.1,1.4c-0.5,0.4-0.8-0.3-1-0.2c-0.2,0.1,0.5,0.6,0.8,0.6c0.5-0.1,0.9-0.6,0.9-1.1c0-1.1-1.3-1.9-2.3-1.6
					c-2.5,0.6-2.7,3.6-1.4,5.3c1.4,1.9,4,2.4,6.1,1.4c0.1,0,0.1-0.1,0.2-0.1c-1.1,1-2.4,1.9-3.6,2.7c-3.2,2.4-4.9,5.4-5.2,8.4
					c-0.4,3.6,1.8,6.5,5.1,7.3c2.8,0.7,6.5-0.6,7.9-3.3c0.7-1.4,0.9-3.3-0.1-4.6c-0.9-1.4-3-2.1-4.5-1.1c-1.3,0.9-1.5,3.6,0.5,3.7
					c0.7,0,1.5-0.6,1.2-1.4c-0.1-0.4-0.6-0.6-0.9-0.5c-0.3,0.2-0.4,0.9,0.1,0.8c-0.6,0.1-0.3-1.1,0.5-0.7c0.6,0.3,0.4,1.2-0.1,1.5
					c-0.5,0.4-1.3,0.1-1.7-0.3c-0.5-0.5-0.4-1.3-0.2-2c0.6-1.4,2.3-1.6,3.6-1c1.3,0.6,1.9,1.9,1.9,3.3c-0.1,3-2.6,5-5.5,4.9
					c-2.9-0.1-5.4-2.2-6.1-5c-0.8-3.4,1.3-6.5,3.6-8.8c1.2-1.2,2.5-2.3,3.7-3.5c0.5-0.5,1.2-1.1,1.7-1.8c1.1-1.3,1.8-3,1.9-4.7
					c0.5-5.3-4.1-10.2-8.3-12.7c-1.9-1.2-4-2-6.2-2.6c0.4,0,0.9,0,1.3,0c4.4-0.1,9.6-2.1,11-6.7c1.2-4-0.5-9.1-4.3-11
					c-3.8-1.9-8.9,0.2-10.1,4.4c-0.5,1.8-0.2,3.8,1.1,5.1c1.3,1.4,3.4,1.8,5,0.5c0.7-0.6,1.2-1.5,0.9-2.5c-0.2-1-1.3-2-2.4-1.6
					c-0.9,0.3-1.5,1.3-0.9,2.1c0.7,1,1.9-0.2,1.1-0.7c0.4-0.5,0.9,0.2,0.9,0.5c0.1,0.5-0.2,1-0.6,1.3c-0.9,0.7-2,0.5-2.8-0.2
					c-1.7-1.4-1.6-4-0.3-5.7c1.2-1.7,3.4-2.7,5.4-2.6c2.3,0.1,4.1,1.7,5.1,3.6c1.1,2.1,1.4,4.8,0.4,7c-0.9,2.1-3,3.6-5,4.4
					c-3.9,1.5-8.3,0.6-12.3,0.4c-3.9-0.2-7.9,0.2-11.6,1.5c-1.2,0.4-2.4,1-3.5,1.6c2.3-1.7,4.6-3.4,6.8-5.2c3.6-3,7-6.3,9.7-10.2
					c1.3-1.8,2.4-3.7,3.3-5.7c0.1-0.2,0.8-1.9,1.2-3.1c0.4-0.3,0.9-1.3,1.1-1.7c0.6-1,1.2-2,1.6-3.1c0.3-0.8,0.3-1.8-0.6-2.2
					c-0.9-0.4-2,0.1-2.1,1.1c0-0.2,0,2,0.1,2.9c0,0.9,0,1.8,0,2.7c-0.5,1.2-1.2,2.8-1.3,3.1c-0.9,1.9-1.9,3.6-3.1,5.3
					c-2.6,3.7-5.9,7-9.4,9.9c-2.7,2.2-5.4,4.3-8.2,6.3c0.8-0.8,1.6-1.6,2.4-2.4c3.1-3.2,5.9-6.6,8.4-10.3c2.7-4,5.1-8.3,6.1-13
					c0.5-2.2,0.7-4.5,0.5-6.7c0-0.2-0.8-4.7-0.9-5.4c-0.2-1.4-0.7-2.7-1.3-3.9c-0.5-0.9-1.2-1.8-2.4-1.4c-1.2,0.4-1.8,2.1-0.8,2.9
					c-0.3-0.2,1.8,1.4,2.6,2.2c2,2,2.6,4.9,2.6,5.1c0.3,2.1,0.1,4.2-0.3,6.3c-0.9,4.4-3.1,8.6-5.5,12.3c-2.4,3.6-5.1,6.9-8,10.1
					c-1.4,1.5-2.9,3-4.4,4.4c-0.2,0.2-0.4,0.4-0.6,0.5c1.6-2.2,3.3-4.3,5-6.3c2-2.4,3.6-5,5.1-7.7c2.1-3.8,3.8-7.9,4.2-12.2
					c0.4-4.6-0.9-9.5-4.3-12.8c-3.2-3.3-9.1-5.8-13.2-3.7c-4.1,2-7.4,7.3-5.3,11.6C39.3,410.5,39.9,411.2,40.6,411.7z M48.6,497.1
					c0.1,0.2,0.1,0.4,0.2,0.6c1.5-0.1,3.1-0.9,3.9-2.2c0.6-0.9,0.9-2.4,0.3-3.4c-0.5-1-1.4-0.8-2.1-0.2c-0.3,0.3-0.6,0.4-0.3,0.8
					c0.2,0.4,0.3,0,0.3-0.2c0-0.8,1.4-0.9,1.8-0.4c0.7,0.9,0.3,2.5-0.3,3.3C51.8,496.3,50.3,497.2,48.6,497.1z M48.7,421.4
					C48.7,421.2,48.7,421.4,48.7,421.4L48.7,421.4z M37.5,460.9c-0.5-1-1.4-3.5-1.5-3.8c-0.6-2.1-0.7-4.4-0.3-6.6
					c0.7-4.6,3.2-8.8,5.8-12.6c2.5-3.6,5.5-7,7.8-10.8c1-1.6,2-3.6,1.7-5.6c-0.1-0.7-0.3-1.6-1.1-1.8c-0.9-0.2-1.5,0.9-1.2,1.7
					c0,0.5,0.2,0.9,0.1,1.5c-0.1,0.7-0.4,1.5-0.7,2.2c-0.8,1.7-1.9,3.3-2.9,4.9c-2.3,3.5-4.8,6.9-6.8,10.5
					c-1.9,3.6-3.5,7.6-3.5,11.7c0,1.9,0.3,3.8,1,5.5C36.1,458,37,460,37.5,460.9z M81,449.7C81.4,450.4,80.8,449.3,81,449.7
					L81,449.7z M53.7,462c-2.4,1-3.9,4.7-2.9,7.1c0,0,0,0.1,0,0.1c0.9-0.8,2.1-1.6,3.1-1.3c0.8,0.2,1.3,1.3,1.3,2.1
					c-0.1,1.8-1.9,1.7-3.1,1.1c0.1,0,0.3,0,0.4,0c0.6,0.3,1.2,0.4,1.8,0.1c1.3-0.6,0.7-2.6-0.7-2.6c-0.9,0-1.8,0.4-2.6,1
					c0.2,0.3,0.7,0.8,1,1.1c-0.1,0-0.2,0-0.4,0c-0.3-0.3-0.6-0.5-0.7-0.8c0,0,0-0.1,0-0.1c-0.2,0.2-0.5,0.5-0.7,0.7
					c-0.1,0-0.2,0-0.3-0.1c0.1-0.1,0.6-0.7,0.9-0.9c-0.9-2.1-0.1-4.7,1.3-6.3c0.5-0.6,1.1-1.2,1.8-1.5c0.1-1,0.6-2.1,0.8-3.1
					c0.3-1.2,0.5-3.1-0.5-4.1c-1-0.9-2.3-0.4-3.3,0.9c0.3-0.6,1.4-1.6,2-1.8c1.8-0.5,2.4,2,2.4,3.4c-0.1,1.6-1.1,3-1.3,4.6
					c0.2-0.1,0.5-0.2,0.7-0.2c1.2-0.1,2.6,0.7,3,1.9c0.3,0.8,0,2.1-1,2.3c-1.3,0.3-2.5-0.9-2.8-2.1C53.7,462.9,53.6,462.5,53.7,462z
					 M53.9,462.4c0.1,1.1,0.8,2.5,2,2.7c0.7,0.1,1.6-0.1,1.6-0.9c0.1-1.6-2.2-2.7-3.5-2.2c0,0,0,0-0.1,0
					C53.8,462.1,53.9,462.3,53.9,462.4z M52.1,532.8c0-0.1-0.1-0.3-0.1-0.4c-0.4,0.7-0.9,1.6-1.3,2.3c-1.7,2.3-4,4.4-6.9,5
					c-1.9,0.3-4-0.2-5.5-1.5c-1.9-1.7-1.9-4.3-0.5-6.3c1.7-2.4,5.1-2.9,7.6-1.2c2.6,1.8,1.4,6.1-1.5,6.6c3-0.1,4-3.5,2.8-6
					c-1.5-3.1-6-2.7-8.2-0.6c-1.7,1.5-2.5,4.1-1.6,6.2c0.7,1.5,2.3,2.9,3.8,3.4C45.7,541.7,49.8,537,52.1,532.8z M46.5,555.2
					c-3.6-1.6-3-6.1,0-7.9c2.6-1.6,6.2,0,4.8,2.8c0,0,0,0,0,0c0,0,0,0,0,0.1c0,0.1-0.1,0.1-0.1,0.2c-0.7,1.2-1.7,3-3.4,2.2
					c-1.9-0.8-0.4-2.8,0.2-3.9c0,0,0,0.1-0.1,0.1c0-0.1,0.1-0.1,0.1-0.1c-0.9,1.9,1.2,2.8,2.6,2.1c0.2-1.2-0.5-2.2-1.8-2.7
					c-1.7-0.6-2.5,0.6-3.7,1.2c-0.1,0,0,1.4,0,1.6c0.1,0.9,0.8,1.8,1.6,2.4c1.4,1,3.6,1.1,5.3,0.6c3.1-1,4.2-4.5,4-7.4
					c-0.4-4.1-2-8.5-3.2-12.3c-1.3-4-2.7-7.3-3.1-12c-0.3-3.7,1-7.4,3.1-10.5c-1.2-2.8-2.6-5.6-3.7-8.5c-2.2-5.7-3.8-13.2-1.2-19.1
					c0.7-1.5,1.5-3.1,2.6-4.4c-0.1-0.2-0.3-0.4-0.4-0.7c-1.2-2.3-2-5.6-0.6-8c0.1,0.1,0.2,0.1,0.3,0.1c-0.2,0.3-0.4,0.6-0.5,0.9
					c-0.7,1.9-0.3,4,0.5,5.8c0.3,0.6,0.6,1.1,0.9,1.7c1.4-1.7,3.1-3.1,5.1-4c2.4-1,5.8-1.5,7.7,0.7c1.3,1.5,1.5,3.7,0.7,5.5
					c-1.1,2.3-3.6,3.2-6,3c-3.2-0.3-5.7-2.1-7.4-4.7c-0.2,0.2-0.3,0.4-0.5,0.6c-2.1,3-3.3,6.1-3.1,9.8c0.4,7,4.1,13.4,6.3,19.9
					c0.1,0.2,0.1,0.3,0.2,0.5c0,0,0,0,0,0c2.2-2.8,6-5.6,9.6-3.5c3.6,2,4.2,7,3,10.6c-1.4,4.3-4.2,7.4-8.9,7.9
					c6.7-0.9,9.1-9.1,8.4-12.1c-0.6-2.7-2.9-5.3-5.8-5.5c-1.7-0.1-4.1,1.1-6.1,3.4c0.9,2.9,1.6,5.8,1.7,8.8
					c0.1,3.7-0.7,7.8-2.6,11.4c-0.1-0.2-0.1-0.2-0.2-0.3c1.3-2.5,2.2-5.4,2.4-8.2c0.3-3.9-0.7-7.4-2.1-10.8
					c-1.5,2.2-2.7,5.1-2.7,8.8c-0.1,4.3,1.5,7.8,2.7,11.6c2.2,6.8,6.3,14,1.2,20.4C52.4,555.2,49.3,556.4,46.5,555.2z M50.8,479.4
					c1.6,2.3,4.1,3.7,7.3,3.9c2.7,0.1,5.8-0.4,6.2-3.4c0.3-2.5-1.4-4-3.9-4.4C56.6,474.9,53.1,476.7,50.8,479.4z M47.9,548.8
					C47.9,548.8,47.9,548.9,47.9,548.8C47.9,548.9,47.9,548.8,47.9,548.8z M47.9,548.9c0,0.1-0.1,0.1-0.1,0.2
					C47.8,549,47.9,549,47.9,548.9z M47.6,549.5c0,0,0.1-0.1,0.1-0.2C47.7,549.4,47.6,549.4,47.6,549.5z M47.6,549.6
					C47.6,549.6,47.6,549.6,47.6,549.6C47.6,549.6,47.6,549.6,47.6,549.6z M82.4,527.2c-3-2.9-7.8,4.8-7.8,4.8
					c0.6-1.3,0-3.6-2.2-3.9c-2.5-0.4-4.7,5.3-6.1,8.7c-0.7,1.8-2.5,5.4-4,8.4c2.1-5,4.2-12.5,1.2-14c-0.3,2.2-1.6,1.8-1.6,1.8
					c-1-4.6-6.9-3.7-6.8-0.4c3.6-0.6,7.7,12,1,20.9c9.1-6.3,21.9-2.8,21.4,0.8c3.3-0.1,4-5.9-0.5-6.8c0,0-0.5-1.3,1.7-1.7
					c-1.4-2.7-7.6-1.1-12.4,0.9c3.1-1.6,6.2-3.2,6.8-3.4c1.2-0.4,9.4-3.4,8.4-6.5c-0.7-2.3-2.7-2.1-3.5-2
					C80.1,534.3,85.2,529.9,82.4,527.2z"/>
				<path class="st2" d="M755.7,40.7c-2.5,2.5-7,2.1-7,2.1s-0.4-4.5,2.1-7c2.5-2.5,7-2.1,7-2.1S758.2,38.2,755.7,40.7z"/>
				<path class="st2" d="M755.7,560c-2.5-2.5-7-2.1-7-2.1s-0.4,4.5,2.1,7c2.5,2.5,7,2.1,7,2.1S758.2,562.5,755.7,560z"/>
				<path class="st2" d="M43.7,40.7c2.5,2.5,7,2.1,7,2.1s0.4-4.5-2.1-7c-2.5-2.5-7-2.1-7-2.1S41.2,38.2,43.7,40.7z"/>
				<path class="st2" d="M43.7,560c2.5-2.5,7-2.1,7-2.1s0.4,4.5-2.1,7c-2.5,2.5-7,2.1-7,2.1S41.2,562.5,43.7,560z"/>
			</g>
		</g>
	</g>
</g>
</svg>
