<svg width="50" height="50" viewBox="0 0 50 50" fill="none" xmlns="http://www.w3.org/2000/svg">
<g clip-path="url(#clip0_17_199)">
<path d="M40.0571 6.63269H9.94286C4.4602 6.63269 0 11.1072 0 16.6062V33.3929C0 38.8929 4.4602 43.3664 9.94286 43.3664H40.0571C45.5398 43.3664 50 38.8919 50 33.3929V16.6062C50 11.1072 45.5398 6.63269 40.0571 6.63269ZM47.9592 33.3939C47.9592 37.7684 44.4143 41.3266 40.0571 41.3266H9.94286C5.58571 41.3266 2.04082 37.7674 2.04082 33.3939V16.6062C2.04082 12.2327 5.58571 8.67351 9.94286 8.67351H40.0571C44.4143 8.67351 47.9592 12.2327 47.9592 16.6062V33.3939Z" fill="white"/>
<path d="M34.0409 24.6306L19.9031 16.35C19.5889 16.1663 19.198 16.1633 18.8807 16.3449C18.5634 16.5265 18.3674 16.8643 18.3674 17.2306V33.7908C18.3674 34.1561 18.5634 34.4949 18.8797 34.6765C19.0368 34.7663 19.2123 34.8112 19.3878 34.8112C19.5664 34.8112 19.744 34.7643 19.9031 34.6714L34.0409 26.3929C34.3531 26.2102 34.546 25.8745 34.546 25.5123C34.546 25.15 34.3542 24.8133 34.0409 24.6306ZM20.4082 32.0102V19.0102L31.5062 25.5112L20.4082 32.0102Z" fill="white"/>
</g>
<defs>
<clipPath id="clip0_17_199">
<rect width="50" height="50" fill="white"/>
</clipPath>
</defs>
</svg>
